TitilliumWeb-Bold.ufo
<glyph name="quotedbl" format="2">
  <advance width="411"/>
  <unicode hex="0022"/>
  <outline>
    <contour>
      <point x="232" y="440" type="line"/>
      <point x="350" y="440" type="line"/>
      <point x="357" y="680" type="line"/>
      <point x="228" y="680" type="line"/>
    </contour>
    <contour>
      <point x="60" y="440" type="line"/>
      <point x="178" y="440" type="line"/>
      <point x="184" y="680" type="line"/>
      <point x="55" y="680" type="line"/>
    </contour>
  </outline>
</glyph>
<glyph name="percent" format="2">
  <advance width="560"/>
  <unicode hex="0025"/>
  <outline>
    <contour>
      <point x="198" y="-32" type="line"/>
      <point x="433" y="673" type="line"/>
      <point x="360" y="699" type="line"/>
      <point x="125" y="-8" type="line"/>
    </contour>
    <contour>
      <point x="134" y="381" type="curve" smooth="yes"/>
      <point x="211" y="381"/>
      <point x="254" y="430"/>
      <point x="254" y="527" type="curve" smooth="yes"/>
      <point x="254" y="624"/>
      <point x="211" y="672"/>
      <point x="134" y="672" type="curve" smooth="yes"/>
      <point x="57" y="672"/>
      <point x="14" y="624"/>
      <point x="14" y="527" type="curve" smooth="yes"/>
      <point x="14" y="430"/>
      <point x="57" y="381"/>
    </contour>
    <contour>
      <point x="134" y="461" type="curve" smooth="yes"/>
      <point x="116" y="461"/>
      <point x="112" y="481"/>
      <point x="112" y="527" type="curve" smooth="yes"/>
      <point x="112" y="573"/>
      <point x="116" y="592"/>
      <point x="134" y="592" type="curve" smooth="yes"/>
      <point x="152" y="592"/>
      <point x="156" y="573"/>
      <point x="156" y="527" type="curve" smooth="yes"/>
      <point x="156" y="481"/>
      <point x="152" y="461"/>
    </contour>
    <contour>
      <point x="426" y="-12" type="curve" smooth="yes"/>
      <point x="503" y="-12"/>
      <point x="546" y="37"/>
      <point x="546" y="134" type="curve" smooth="yes"/>
      <point x="546" y="231"/>
      <point x="503" y="279"/>
      <point x="426" y="279" type="curve" smooth="yes"/>
      <point x="349" y="279"/>
      <point x="306" y="231"/>
      <point x="306" y="134" type="curve" smooth="yes"/>
      <point x="306" y="37"/>
      <point x="349" y="-12"/>
    </contour>
    <contour>
      <point x="426" y="68" type="curve" smooth="yes"/>
      <point x="408" y="68"/>
      <point x="404" y="88"/>
      <point x="404" y="134" type="curve" smooth="yes"/>
      <point x="404" y="180"/>
      <point x="408" y="199"/>
      <point x="426" y="199" type="curve" smooth="yes"/>
      <point x="444" y="199"/>
      <point x="448" y="180"/>
      <point x="448" y="134" type="curve" smooth="yes"/>
      <point x="448" y="88"/>
      <point x="444" y="68"/>
    </contour>
  </outline>
</glyph>
<glyph name="ampersand" format="2">
  <advance width="701"/>
  <unicode hex="0026"/>
  <outline>
    <contour>
      <point x="304" y="-12" type="curve" smooth="yes"/>
      <point x="389" y="-12"/>
      <point x="465" y="26"/>
      <point x="509" y="75" type="curve"/>
      <point x="615" y="-12" type="line"/>
      <point x="691" y="75" type="line"/>
      <point x="579" y="173" type="line"/>
      <point x="599" y="221"/>
      <point x="621" y="305"/>
      <point x="630" y="376" type="curve"/>
      <point x="500" y="379" type="line"/>
      <point x="499" y="344"/>
      <point x="489" y="272"/>
      <point x="481" y="251" type="curve"/>
      <point x="383" y="349" type="line"/>
      <point x="481" y="417"/>
      <point x="520" y="460"/>
      <point x="520" y="550" type="curve" smooth="yes"/>
      <point x="520" y="655"/>
      <point x="447" y="712"/>
      <point x="316" y="712" type="curve" smooth="yes"/>
      <point x="193" y="712"/>
      <point x="111" y="655"/>
      <point x="111" y="561" type="curve" smooth="yes"/>
      <point x="111" y="494"/>
      <point x="122" y="466"/>
      <point x="177" y="399" type="curve"/>
      <point x="81" y="361"/>
      <point x="35" y="307"/>
      <point x="35" y="196" type="curve" smooth="yes"/>
      <point x="35" y="66"/>
      <point x="100" y="-12"/>
    </contour>
    <contour>
      <point x="287" y="108" type="curve" smooth="yes"/>
      <point x="208" y="108"/>
      <point x="171" y="141"/>
      <point x="171" y="207" type="curve" smooth="yes"/>
      <point x="171" y="262"/>
      <point x="198" y="298"/>
      <point x="245" y="321" type="curve"/>
      <point x="418" y="148" type="line"/>
      <point x="397" y="124"/>
      <point x="339" y="108"/>
    </contour>
    <contour>
      <point x="309" y="425" type="curve"/>
      <point x="264" y="473"/>
      <point x="247" y="494"/>
      <point x="247" y="531" type="curve" smooth="yes"/>
      <point x="247" y="578"/>
      <point x="274" y="598"/>
      <point x="316" y="598" type="curve" smooth="yes"/>
      <point x="360" y="598"/>
      <point x="384" y="581"/>
      <point x="384" y="535" type="curve" smooth="yes"/>
      <point x="384" y="489"/>
      <point x="361" y="463"/>
    </contour>
  </outline>
</glyph>
<glyph name="quotesingle" format="2">
  <advance width="239"/>
  <unicode hex="0027"/>
  <outline>
    <contour>
      <point x="60" y="440" type="line"/>
      <point x="178" y="440" type="line"/>
      <point x="185" y="680" type="line"/>
      <point x="56" y="680" type="line"/>
    </contour>
  </outline>
</glyph>
<glyph name="parenleft" format="2">
  <advance width="308"/>
  <unicode hex="0028"/>
  <outline>
    <contour>
      <point x="154" y="-125" type="curve"/>
      <point x="281" y="-125" type="line"/>
      <point x="240" y="-27"/>
      <point x="186" y="156"/>
      <point x="186" y="301" type="curve" smooth="yes"/>
      <point x="186" y="446"/>
      <point x="240" y="643"/>
      <point x="281" y="750" type="curve"/>
      <point x="154" y="750" type="line"/>
      <point x="104" y="660"/>
      <point x="38" y="475"/>
      <point x="38" y="301" type="curve" smooth="yes"/>
      <point x="38" y="127"/>
      <point x="104" y="-45"/>
    </contour>
  </outline>
</glyph>
<glyph name="asterisk" format="2">
  <advance width="425"/>
  <unicode hex="002A"/>
  <outline>
    <contour>
      <point x="231" y="357" type="line"/>
      <point x="304" y="379" type="line"/>
      <point x="266" y="499" type="line"/>
      <point x="389" y="499" type="line"/>
      <point x="389" y="573" type="line"/>
      <point x="266" y="573" type="line"/>
      <point x="304" y="695" type="line"/>
      <point x="229" y="720" type="line"/>
      <point x="190" y="599" type="line"/>
      <point x="89" y="672" type="line"/>
      <point x="43" y="609" type="line"/>
      <point x="145" y="536" type="line"/>
      <point x="40" y="458" type="line"/>
      <point x="87" y="399" type="line"/>
      <point x="190" y="478" type="line"/>
    </contour>
  </outline>
</glyph>
<glyph name="plus" format="2">
  <advance width="560"/>
  <unicode hex="002B"/>
  <outline>
    <contour>
      <point x="219" y="21" type="line"/>
      <point x="339" y="21" type="line"/>
      <point x="339" y="191" type="line"/>
      <point x="510" y="191" type="line"/>
      <point x="510" y="311" type="line"/>
      <point x="339" y="311" type="line"/>
      <point x="339" y="479" type="line"/>
      <point x="219" y="479" type="line"/>
      <point x="219" y="311" type="line"/>
      <point x="50" y="311" type="line"/>
      <point x="50" y="191" type="line"/>
      <point x="219" y="191" type="line"/>
    </contour>
  </outline>
</glyph>
<glyph name="slash" format="2">
  <advance width="466"/>
  <unicode hex="002F"/>
  <outline>
    <contour>
      <point x="149" y="-34" type="line"/>
      <point x="437" y="676" type="line"/>
      <point x="319" y="718" type="line"/>
      <point x="31" y="8" type="line"/>
    </contour>
  </outline>
</glyph>
<glyph name="three" format="2">
  <advance width="560"/>
  <unicode hex="0033"/>
  <outline>
    <contour>
      <point x="272" y="-12" type="curve" smooth="yes"/>
      <point x="433" y="-12"/>
      <point x="497" y="60"/>
      <point x="497" y="199" type="curve" smooth="yes"/>
      <point x="497" y="288"/>
      <point x="463" y="312"/>
      <point x="408" y="342" type="curve"/>
      <point x="456" y="374"/>
      <point x="485" y="418"/>
      <point x="485" y="490" type="curve" smooth="yes"/>
      <point x="485" y="613"/>
      <point x="428" y="672"/>
      <point x="254" y="672" type="curve" smooth="yes"/>
      <point x="181" y="672"/>
      <point x="102" y="651"/>
      <point x="62" y="636" type="curve"/>
      <point x="71" y="534" type="line"/>
      <point x="112" y="542"/>
      <point x="187" y="552"/>
      <point x="244" y="552" type="curve" smooth="yes"/>
      <point x="312" y="552"/>
      <point x="343" y="528"/>
      <point x="343" y="481" type="curve" smooth="yes"/>
      <point x="343" y="436"/>
      <point x="304" y="391"/>
      <point x="259" y="391" type="curve" smooth="yes"/>
      <point x="126" y="391" type="line"/>
      <point x="126" y="277" type="line"/>
      <point x="259" y="277" type="line" smooth="yes"/>
      <point x="316" y="277"/>
      <point x="355" y="245"/>
      <point x="355" y="196" type="curve" smooth="yes"/>
      <point x="355" y="135"/>
      <point x="320" y="108"/>
      <point x="252" y="108" type="curve" smooth="yes"/>
      <point x="197" y="108"/>
      <point x="112" y="119"/>
      <point x="64" y="127" type="curve"/>
      <point x="57" y="22" type="line"/>
      <point x="107" y="7"/>
      <point x="200" y="-12"/>
    </contour>
  </outline>
</glyph>
<glyph name="eight" format="2">
  <advance width="560"/>
  <unicode hex="0038"/>
  <outline>
    <contour>
      <point x="278" y="-12" type="curve" smooth="yes"/>
      <point x="417" y="-12"/>
      <point x="531" y="40"/>
      <point x="531" y="179" type="curve" smooth="yes"/>
      <point x="531" y="262"/>
      <point x="502" y="296"/>
      <point x="449" y="340" type="curve"/>
      <point x="506" y="386"/>
      <point x="521" y="412"/>
      <point x="521" y="491" type="curve" smooth="yes"/>
      <point x="521" y="607"/>
      <point x="420" y="672"/>
      <point x="278" y="672" type="curve" smooth="yes"/>
      <point x="134" y="672"/>
      <point x="39" y="606"/>
      <point x="39" y="492" type="curve" smooth="yes"/>
      <point x="39" y="422"/>
      <point x="54" y="386"/>
      <point x="111" y="340" type="curve"/>
      <point x="58" y="296"/>
      <point x="28" y="259"/>
      <point x="28" y="168" type="curve" smooth="yes"/>
      <point x="28" y="29"/>
      <point x="139" y="-12"/>
    </contour>
    <contour>
      <point x="278" y="112" type="curve" smooth="yes"/>
      <point x="210" y="112"/>
      <point x="176" y="139"/>
      <point x="176" y="200" type="curve" smooth="yes"/>
      <point x="176" y="232"/>
      <point x="195" y="259"/>
      <point x="236" y="275" type="curve"/>
      <point x="324" y="275" type="line"/>
      <point x="363" y="260"/>
      <point x="383" y="232"/>
      <point x="383" y="200" type="curve" smooth="yes"/>
      <point x="383" y="139"/>
      <point x="346" y="112"/>
    </contour>
    <contour>
      <point x="236" y="392" type="line"/>
      <point x="204" y="414"/>
      <point x="187" y="438"/>
      <point x="187" y="470" type="curve" smooth="yes"/>
      <point x="187" y="520"/>
      <point x="220" y="548"/>
      <point x="280" y="548" type="curve" smooth="yes"/>
      <point x="341" y="548"/>
      <point x="373" y="520"/>
      <point x="373" y="470" type="curve" smooth="yes"/>
      <point x="373" y="438"/>
      <point x="356" y="414"/>
      <point x="324" y="392" type="curve"/>
    </contour>
  </outline>
</glyph>
<glyph name="colon" format="2">
  <advance width="256"/>
  <unicode hex="003A"/>
  <outline>
    <contour>
      <point x="56" y="289" type="line"/>
      <point x="200" y="289" type="line"/>
      <point x="200" y="455" type="line"/>
      <point x="56" y="455" type="line"/>
    </contour>
    <contour>
      <point x="56" y="0" type="line"/>
      <point x="200" y="0" type="line"/>
      <point x="200" y="166" type="line"/>
      <point x="56" y="166" type="line"/>
    </contour>
  </outline>
</glyph>
<glyph name="semicolon" format="2">
  <advance width="279"/>
  <unicode hex="003B"/>
  <outline>
    <contour>
      <point x="27" y="-123" type="line"/>
      <point x="135" y="-123" type="line"/>
      <point x="225" y="137" type="line"/>
      <point x="77" y="137" type="line"/>
    </contour>
    <contour>
      <point x="69" y="289" type="line"/>
      <point x="213" y="289" type="line"/>
      <point x="213" y="455" type="line"/>
      <point x="69" y="455" type="line"/>
    </contour>
  </outline>
</glyph>
<glyph name="equal" format="2">
  <advance width="560"/>
  <unicode hex="003D"/>
  <outline>
    <contour>
      <point x="58" y="295" type="line"/>
      <point x="502" y="295" type="line"/>
      <point x="502" y="416" type="line"/>
      <point x="58" y="416" type="line"/>
    </contour>
    <contour>
      <point x="58" y="87" type="line"/>
      <point x="502" y="87" type="line"/>
      <point x="502" y="208" type="line"/>
      <point x="58" y="208" type="line"/>
    </contour>
  </outline>
</glyph>
<glyph name="at" format="2">
  <advance width="973"/>
  <unicode hex="0040"/>
  <outline>
    <contour>
      <point x="503" y="-209" type="curve" smooth="yes"/>
      <point x="545" y="-209"/>
      <point x="612" y="-203"/>
      <point x="651" y="-199" type="curve"/>
      <point x="646" y="-82" type="line"/>
      <point x="606" y="-86"/>
      <point x="540" y="-91"/>
      <point x="503" y="-91" type="curve" smooth="yes"/>
      <point x="261" y="-91"/>
      <point x="172" y="19"/>
      <point x="172" y="261" type="curve" smooth="yes"/>
      <point x="172" y="480"/>
      <point x="286" y="611"/>
      <point x="503" y="611" type="curve" smooth="yes"/>
      <point x="715" y="611"/>
      <point x="810" y="520"/>
      <point x="810" y="306" type="curve" smooth="yes"/>
      <point x="810" y="297" type="line" smooth="yes"/>
      <point x="810" y="148"/>
      <point x="789" y="112"/>
      <point x="749" y="112" type="curve" smooth="yes"/>
      <point x="704" y="112"/>
      <point x="699" y="127"/>
      <point x="699" y="309" type="curve" smooth="yes"/>
      <point x="699" y="488" type="line"/>
      <point x="565" y="488" type="line"/>
      <point x="565" y="475" type="line"/>
      <point x="542" y="486"/>
      <point x="501" y="500"/>
      <point x="474" y="500" type="curve" smooth="yes"/>
      <point x="330" y="500"/>
      <point x="283" y="413"/>
      <point x="283" y="251" type="curve" smooth="yes"/>
      <point x="283" y="68"/>
      <point x="348" y="0"/>
      <point x="470" y="0" type="curve" smooth="yes"/>
      <point x="520" y="0"/>
      <point x="584" y="32"/>
      <point x="618" y="56" type="curve"/>
      <point x="630" y="32"/>
      <point x="675" y="0"/>
      <point x="751" y="0" type="curve" smooth="yes"/>
      <point x="876" y="0"/>
      <point x="944" y="88"/>
      <point x="944" y="297" type="curve" smooth="yes"/>
      <point x="944" y="305" type="line" smooth="yes"/>
      <point x="944" y="579"/>
      <point x="798" y="729"/>
      <point x="503" y="729" type="curve" smooth="yes"/>
      <point x="227" y="729"/>
      <point x="38" y="579"/>
      <point x="38" y="261" type="curve" smooth="yes"/>
      <point x="38" y="-100"/>
      <point x="207" y="-209"/>
    </contour>
    <contour>
      <point x="481" y="118" type="curve" smooth="yes"/>
      <point x="438" y="118"/>
      <point x="419" y="162"/>
      <point x="419" y="251" type="curve" smooth="yes"/>
      <point x="419" y="343"/>
      <point x="432" y="382"/>
      <point x="504" y="382" type="curve" smooth="yes"/>
      <point x="518" y="382"/>
      <point x="547" y="376"/>
      <point x="565" y="372" type="curve"/>
      <point x="565" y="249" type="line" smooth="yes"/>
      <point x="565" y="211"/>
      <point x="566" y="173"/>
      <point x="571" y="143" type="curve"/>
      <point x="548" y="132"/>
      <point x="511" y="118"/>
    </contour>
  </outline>
</glyph>
<glyph name="B" format="2">
  <advance width="609"/>
  <unicode hex="0042"/>
  <outline>
    <contour>
      <point x="74" y="0" type="line"/>
      <point x="345" y="0" type="line" smooth="yes"/>
      <point x="481" y="0"/>
      <point x="566" y="59"/>
      <point x="566" y="195" type="curve" smooth="yes"/>
      <point x="566" y="283"/>
      <point x="536" y="325"/>
      <point x="478" y="350" type="curve"/>
      <point x="532" y="384"/>
      <point x="553" y="423"/>
      <point x="553" y="500" type="curve" smooth="yes"/>
      <point x="553" y="630"/>
      <point x="478" y="680"/>
      <point x="341" y="680" type="curve" smooth="yes"/>
      <point x="74" y="680" type="line"/>
    </contour>
    <contour>
      <point x="212" y="118" type="line"/>
      <point x="212" y="284" type="line"/>
      <point x="338" y="284" type="line" smooth="yes"/>
      <point x="393" y="284"/>
      <point x="426" y="258"/>
      <point x="426" y="202" type="curve" smooth="yes"/>
      <point x="426" y="135"/>
      <point x="395" y="118"/>
      <point x="338" y="118" type="curve" smooth="yes"/>
    </contour>
    <contour>
      <point x="212" y="400" type="line"/>
      <point x="212" y="562" type="line"/>
      <point x="334" y="562" type="line" smooth="yes"/>
      <point x="386" y="562"/>
      <point x="413" y="538"/>
      <point x="413" y="482" type="curve" smooth="yes"/>
      <point x="413" y="428"/>
      <point x="389" y="400"/>
      <point x="335" y="400" type="curve" smooth="yes"/>
    </contour>
  </outline>
</glyph>
<glyph name="C" format="2">
  <advance width="543"/>
  <unicode hex="0043"/>
  <outline>
    <contour>
      <point x="307" y="-12" type="curve" smooth="yes"/>
      <point x="369" y="-12"/>
      <point x="459" y="1"/>
      <point x="505" y="11" type="curve"/>
      <point x="502" y="124" type="line"/>
      <point x="462" y="118"/>
      <point x="377" y="110"/>
      <point x="331" y="110" type="curve" smooth="yes"/>
      <point x="213" y="110"/>
      <point x="189" y="157"/>
      <point x="189" y="340" type="curve" smooth="yes"/>
      <point x="189" y="533"/>
      <point x="222" y="570"/>
      <point x="327" y="570" type="curve" smooth="yes"/>
      <point x="372" y="570"/>
      <point x="456" y="562"/>
      <point x="502" y="555" type="curve"/>
      <point x="506" y="665" type="line"/>
      <point x="464" y="675"/>
      <point x="378" y="692"/>
      <point x="307" y="692" type="curve" smooth="yes"/>
      <point x="105" y="692"/>
      <point x="47" y="598"/>
      <point x="47" y="340" type="curve" smooth="yes"/>
      <point x="47" y="102"/>
      <point x="97" y="-12"/>
    </contour>
  </outline>
</glyph>
<glyph name="H" format="2">
  <advance width="677"/>
  <unicode hex="0048"/>
  <outline>
    <contour>
      <point x="74" y="0" type="line"/>
      <point x="212" y="0" type="line"/>
      <point x="212" y="282" type="line"/>
      <point x="465" y="282" type="line"/>
      <point x="465" y="0" type="line"/>
      <point x="603" y="0" type="line"/>
      <point x="603" y="680" type="line"/>
      <point x="465" y="680" type="line"/>
      <point x="465" y="402" type="line"/>
      <point x="212" y="402" type="line"/>
      <point x="212" y="680" type="line"/>
      <point x="74" y="680" type="line"/>
    </contour>
  </outline>
</glyph>
<glyph name="I" format="2">
  <advance width="286"/>
  <unicode hex="0049"/>
  <outline>
    <contour>
      <point x="74" y="0" type="line"/>
      <point x="212" y="0" type="line"/>
      <point x="212" y="680" type="line"/>
      <point x="74" y="680" type="line"/>
    </contour>
  </outline>
</glyph>
<glyph name="O" format="2">
  <advance width="652"/>
  <unicode hex="004F"/>
  <outline>
    <contour>
      <point x="326" y="-12" type="curve" smooth="yes"/>
      <point x="540" y="-12"/>
      <point x="608" y="106"/>
      <point x="608" y="336" type="curve" smooth="yes"/>
      <point x="608" y="566"/>
      <point x="540" y="692"/>
      <point x="326" y="692" type="curve" smooth="yes"/>
      <point x="112" y="692"/>
      <point x="44" y="566"/>
      <point x="44" y="336" type="curve" smooth="yes"/>
      <point x="44" y="106"/>
      <point x="112" y="-12"/>
    </contour>
    <contour>
      <point x="326" y="108" type="curve" smooth="yes"/>
      <point x="214" y="108"/>
      <point x="186" y="179"/>
      <point x="186" y="336" type="curve" smooth="yes"/>
      <point x="186" y="493"/>
      <point x="214" y="572"/>
      <point x="326" y="572" type="curve" smooth="yes"/>
      <point x="438" y="572"/>
      <point x="466" y="493"/>
      <point x="466" y="336" type="curve" smooth="yes"/>
      <point x="466" y="179"/>
      <point x="438" y="108"/>
    </contour>
  </outline>
</glyph>
<glyph name="P" format="2">
  <advance width="589"/>
  <unicode hex="0050"/>
  <outline>
    <contour>
      <point x="74" y="0" type="line"/>
      <point x="212" y="0" type="line"/>
      <point x="212" y="198" type="line"/>
      <point x="324" y="198" type="line" smooth="yes"/>
      <point x="484" y="198"/>
      <point x="566" y="286"/>
      <point x="566" y="444" type="curve" smooth="yes"/>
      <point x="566" y="602"/>
      <point x="484" y="680"/>
      <point x="324" y="680" type="curve" smooth="yes"/>
      <point x="74" y="680" type="line"/>
    </contour>
    <contour>
      <point x="212" y="316" type="line"/>
      <point x="212" y="562" type="line"/>
      <point x="323" y="562" type="line" smooth="yes"/>
      <point x="392" y="562"/>
      <point x="426" y="529"/>
      <point x="426" y="444" type="curve" smooth="yes"/>
      <point x="426" y="358"/>
      <point x="392" y="316"/>
      <point x="323" y="316" type="curve" smooth="yes"/>
    </contour>
  </outline>
</glyph>
<glyph name="V" format="2">
  <advance width="603"/>
  <unicode hex="0056"/>
  <outline>
    <contour>
      <point x="174" y="0" type="line"/>
      <point x="429" y="0" type="line"/>
      <point x="587" y="680" type="line"/>
      <point x="442" y="680" type="line"/>
      <point x="324" y="120" type="line"/>
      <point x="279" y="120" type="line"/>
      <point x="161" y="680" type="line"/>
      <point x="16" y="680" type="line"/>
    </contour>
  </outline>
</glyph>
<glyph name="X" format="2">
  <advance width="569"/>
  <unicode hex="0058"/>
  <outline>
    <contour>
      <point x="9" y="0" type="line"/>
      <point x="152" y="0" type="line"/>
      <point x="281" y="235" type="line"/>
      <point x="407" y="0" type="line"/>
      <point x="560" y="0" type="line"/>
      <point x="364" y="333" type="line"/>
      <point x="560" y="680" type="line"/>
      <point x="417" y="680" type="line"/>
      <point x="288" y="430" type="line"/>
      <point x="162" y="680" type="line"/>
      <point x="9" y="680" type="line"/>
      <point x="205" y="326" type="line"/>
    </contour>
  </outline>
</glyph>
<glyph name="Z" format="2">
  <advance width="532"/>
  <unicode hex="005A"/>
  <outline>
    <contour>
      <point x="41" y="0" type="line"/>
      <point x="491" y="0" type="line"/>
      <point x="491" y="120" type="line"/>
      <point x="207" y="120" type="line"/>
      <point x="207" y="138" type="line"/>
      <point x="491" y="560" type="line"/>
      <point x="491" y="680" type="line"/>
      <point x="41" y="680" type="line"/>
      <point x="41" y="560" type="line"/>
      <point x="325" y="560" type="line"/>
      <point x="325" y="542" type="line"/>
      <point x="41" y="119" type="line"/>
    </contour>
  </outline>
</glyph>
<glyph name="bracketleft" format="2">
  <advance width="355"/>
  <unicode hex="005B"/>
  <outline>
    <contour>
      <point x="68" y="-123" type="line"/>
      <point x="320" y="-123" type="line"/>
      <point x="320" y="-3" type="line"/>
      <point x="205" y="-3" type="line"/>
      <point x="205" y="629" type="line"/>
      <point x="320" y="629" type="line"/>
      <point x="320" y="749" type="line"/>
      <point x="68" y="749" type="line"/>
    </contour>
  </outline>
</glyph>
<glyph name="backslash" format="2">
  <advance width="498"/>
  <unicode hex="005C"/>
  <outline>
    <contour>
      <point x="350" y="-36" type="line"/>
      <point x="466" y="13" type="line"/>
      <point x="146" y="716" type="line"/>
      <point x="32" y="664" type="line"/>
    </contour>
  </outline>
</glyph>
<glyph name="grave" format="2">
  <advance width="268"/>
  <unicode hex="0060"/>
  <outline>
    <contour>
      <point x="245" y="564" type="line"/>
      <point x="275" y="651" type="line"/>
      <point x="23" y="753" type="line"/>
      <point x="-17" y="638" type="line"/>
    </contour>
  </outline>
</glyph>
<glyph name="a" format="2">
  <advance width="511"/>
  <unicode hex="0061"/>
  <outline>
    <contour>
      <point x="184" y="-12" type="curve" smooth="yes"/>
      <point x="239" y="-12"/>
      <point x="300" y="8"/>
      <point x="331" y="23" type="curve"/>
      <point x="350" y="10"/>
      <point x="367" y="2"/>
      <point x="387" y="-3" type="curve"/>
      <point x="411" y="-10"/>
      <point x="437" y="-12"/>
      <point x="474" y="-12" type="curve"/>
      <point x="478" y="89" type="line"/>
      <point x="451" y="94"/>
      <point x="447" y="106"/>
      <point x="445" y="136" type="curve"/>
      <point x="445" y="344" type="line" smooth="yes"/>
      <point x="445" y="461"/>
      <point x="393" y="512"/>
      <point x="263" y="512" type="curve" smooth="yes"/>
      <point x="193" y="512"/>
      <point x="106" y="495"/>
      <point x="60" y="483" type="curve"/>
      <point x="64" y="390" type="line"/>
      <point x="116" y="393"/>
      <point x="204" y="398"/>
      <point x="252" y="398" type="curve" smooth="yes"/>
      <point x="292" y="398"/>
      <point x="311" y="387"/>
      <point x="311" y="344" type="curve" smooth="yes"/>
      <point x="311" y="313" type="line"/>
      <point x="204" y="305" type="line" smooth="yes"/>
      <point x="94" y="297"/>
      <point x="29" y="265"/>
      <point x="29" y="152" type="curve" smooth="yes"/>
      <point x="29" y="46"/>
      <point x="79" y="-12"/>
    </contour>
    <contour>
      <point x="213" y="97" type="curve" smooth="yes"/>
      <point x="177" y="97"/>
      <point x="164" y="121"/>
      <point x="164" y="156" type="curve" smooth="yes"/>
      <point x="164" y="192"/>
      <point x="185" y="209"/>
      <point x="220" y="212" type="curve" smooth="yes"/>
      <point x="311" y="220" type="line"/>
      <point x="311" y="113" type="line"/>
      <point x="287" y="106"/>
      <point x="244" y="97"/>
    </contour>
  </outline>
</glyph>
<glyph name="b" format="2">
  <advance width="544"/>
  <unicode hex="0062"/>
  <outline>
    <contour>
      <point x="257" y="-12" type="curve" smooth="yes"/>
      <point x="433" y="-12"/>
      <point x="506" y="42"/>
      <point x="506" y="257" type="curve" smooth="yes"/>
      <point x="506" y="449"/>
      <point x="440" y="512"/>
      <point x="304" y="512" type="curve" smooth="yes"/>
      <point x="272" y="512"/>
      <point x="224" y="497"/>
      <point x="196" y="485" type="curve"/>
      <point x="196" y="700" type="line"/>
      <point x="62" y="700" type="line"/>
      <point x="62" y="2" type="line"/>
      <point x="125" y="-4"/>
      <point x="222" y="-12"/>
    </contour>
    <contour>
      <point x="257" y="108" type="curve" smooth="yes"/>
      <point x="246" y="108"/>
      <point x="216" y="110"/>
      <point x="196" y="112" type="curve"/>
      <point x="196" y="379" type="line"/>
      <point x="218" y="385"/>
      <point x="257" y="392"/>
      <point x="286" y="392" type="curve" smooth="yes"/>
      <point x="338" y="392"/>
      <point x="370" y="358"/>
      <point x="370" y="257" type="curve" smooth="yes"/>
      <point x="370" y="149"/>
      <point x="349" y="108"/>
    </contour>
  </outline>
</glyph>
<glyph name="e" format="2">
  <advance width="510"/>
  <unicode hex="0065"/>
  <outline>
    <contour>
      <point x="252" y="-12" type="curve" smooth="yes"/>
      <point x="320" y="-12"/>
      <point x="411" y="4"/>
      <point x="460" y="16" type="curve"/>
      <point x="458" y="115" type="line"/>
      <point x="414" y="111"/>
      <point x="333" y="106"/>
      <point x="273" y="106" type="curve" smooth="yes"/>
      <point x="201" y="106"/>
      <point x="173" y="133"/>
      <point x="172" y="193" type="curve"/>
      <point x="466" y="193" type="line"/>
      <point x="476" y="286" type="line"/>
      <point x="476" y="437"/>
      <point x="405" y="512"/>
      <point x="258" y="512" type="curve" smooth="yes"/>
      <point x="112" y="512"/>
      <point x="37" y="421"/>
      <point x="37" y="243" type="curve" smooth="yes"/>
      <point x="37" y="63"/>
      <point x="101" y="-12"/>
    </contour>
    <contour>
      <point x="171" y="295" type="line"/>
      <point x="172" y="371"/>
      <point x="194" y="402"/>
      <point x="258" y="402" type="curve" smooth="yes"/>
      <point x="321" y="402"/>
      <point x="344" y="376"/>
      <point x="344" y="295" type="curve"/>
    </contour>
  </outline>
</glyph>
<glyph name="f" format="2">
  <advance width="357"/>
  <unicode hex="0066"/>
  <outline>
    <contour>
      <point x="86" y="0" type="line"/>
      <point x="220" y="0" type="line"/>
      <point x="220" y="386" type="line"/>
      <point x="341" y="386" type="line"/>
      <point x="341" y="500" type="line"/>
      <point x="220" y="500" type="line"/>
      <point x="220" y="521" type="line" smooth="yes"/>
      <point x="220" y="572"/>
      <point x="230" y="592"/>
      <point x="268" y="592" type="curve" smooth="yes"/>
      <point x="291" y="592"/>
      <point x="325" y="591"/>
      <point x="344" y="590" type="curve"/>
      <point x="346" y="699" type="line"/>
      <point x="311" y="705"/>
      <point x="256" y="712"/>
      <point x="232" y="712" type="curve" smooth="yes"/>
      <point x="123" y="712"/>
      <point x="86" y="666"/>
      <point x="86" y="522" type="curve" smooth="yes"/>
      <point x="86" y="500" type="line"/>
      <point x="32" y="500" type="line"/>
      <point x="32" y="386" type="line"/>
      <point x="86" y="386" type="line"/>
    </contour>
  </outline>
</glyph>
<glyph name="g" format="2">
  <advance width="534"/>
  <unicode hex="0067"/>
  <outline>
    <contour>
      <point x="278" y="-230" type="curve" smooth="yes"/>
      <point x="407" y="-230"/>
      <point x="515" y="-184"/>
      <point x="515" y="-62" type="curve" smooth="yes"/>
      <point x="515" y="50"/>
      <point x="467" y="88"/>
      <point x="297" y="89" type="curve" smooth="yes"/>
      <point x="212" y="90"/>
      <point x="200" y="96"/>
      <point x="200" y="122" type="curve" smooth="yes"/>
      <point x="200" y="131"/>
      <point x="206" y="150"/>
      <point x="210" y="161" type="curve"/>
      <point x="219" y="159"/>
      <point x="240" y="157"/>
      <point x="251" y="157" type="curve" smooth="yes"/>
      <point x="388" y="157"/>
      <point x="462" y="193"/>
      <point x="462" y="333" type="curve" smooth="yes"/>
      <point x="462" y="362"/>
      <point x="449" y="387"/>
      <point x="440" y="401" type="curve"/>
      <point x="515" y="395" type="line"/>
      <point x="515" y="502" type="line"/>
      <point x="354" y="497" type="line"/>
      <point x="329" y="503"/>
      <point x="285" y="510"/>
      <point x="253" y="510" type="curve" smooth="yes"/>
      <point x="136" y="510"/>
      <point x="43" y="462"/>
      <point x="43" y="333" type="curve" smooth="yes"/>
      <point x="43" y="246"/>
      <point x="76" y="209"/>
      <point x="111" y="184" type="curve"/>
      <point x="94" y="160"/>
      <point x="72" y="122"/>
      <point x="72" y="104" type="curve" smooth="yes"/>
      <point x="72" y="73"/>
      <point x="87" y="43"/>
      <point x="109" y="28" type="curve"/>
      <point x="59" y="-11"/>
      <point x="37" y="-45"/>
      <point x="37" y="-91" type="curve" smooth="yes"/>
      <point x="37" y="-203"/>
      <point x="132" y="-230"/>
    </contour>
    <contour>
      <point x="279" y="-120" type="curve" smooth="yes"/>
      <point x="204" y="-120"/>
      <point x="169" y="-106"/>
      <point x="169" y="-77" type="curve" smooth="yes"/>
      <point x="169" y="-52"/>
      <point x="179" y="-37"/>
      <point x="196" y="-20" type="curve"/>
      <point x="223" y="-23"/>
      <point x="266" y="-27"/>
      <point x="286" y="-27" type="curve" smooth="yes"/>
      <point x="360" y="-28"/>
      <point x="380" y="-32"/>
      <point x="380" y="-70" type="curve" smooth="yes"/>
      <point x="380" y="-106"/>
      <point x="344" y="-120"/>
    </contour>
    <contour>
      <point x="254" y="259" type="curve" smooth="yes"/>
      <point x="200" y="259"/>
      <point x="177" y="286"/>
      <point x="177" y="333" type="curve" smooth="yes"/>
      <point x="177" y="380"/>
      <point x="200" y="406"/>
      <point x="254" y="406" type="curve" smooth="yes"/>
      <point x="308" y="406"/>
      <point x="330" y="380"/>
      <point x="330" y="333" type="curve" smooth="yes"/>
      <point x="330" y="286"/>
      <point x="308" y="259"/>
    </contour>
  </outline>
</glyph>
<glyph name="h" format="2">
  <advance width="553"/>
  <unicode hex="0068"/>
  <outline>
    <contour>
      <point x="62" y="0" type="line"/>
      <point x="196" y="0" type="line"/>
      <point x="196" y="376" type="line"/>
      <point x="216" y="383"/>
      <point x="255" y="392"/>
      <point x="287" y="392" type="curve" smooth="yes"/>
      <point x="352" y="392"/>
      <point x="362" y="343"/>
      <point x="362" y="268" type="curve" smooth="yes"/>
      <point x="362" y="0" type="line"/>
      <point x="496" y="0" type="line"/>
      <point x="496" y="271" type="line" smooth="yes"/>
      <point x="496" y="424"/>
      <point x="460" y="512"/>
      <point x="320" y="512" type="curve" smooth="yes"/>
      <point x="280" y="512"/>
      <point x="226" y="491"/>
      <point x="196" y="476" type="curve"/>
      <point x="196" y="700" type="line"/>
      <point x="62" y="700" type="line"/>
    </contour>
  </outline>
</glyph>
<glyph name="l" format="2">
  <advance width="270"/>
  <unicode hex="006C"/>
  <anchor x="135" y="0" name="bottom"/>
  <outline>
    <contour>
      <point x="68" y="0" type="line"/>
      <point x="202" y="0" type="line"/>
      <point x="202" y="700" type="line"/>
      <point x="68" y="700" type="line"/>
    </contour>
  </outline>
</glyph>
<glyph name="o" format="2">
  <advance width="532"/>
  <unicode hex="006F"/>
  <outline>
    <contour>
      <point x="266" y="-12" type="curve" smooth="yes"/>
      <point x="440" y="-12"/>
      <point x="496" y="97"/>
      <point x="496" y="251" type="curve" smooth="yes"/>
      <point x="496" y="405"/>
      <point x="440" y="512"/>
      <point x="266" y="512" type="curve" smooth="yes"/>
      <point x="92" y="512"/>
      <point x="36" y="405"/>
      <point x="36" y="251" type="curve" smooth="yes"/>
      <point x="36" y="97"/>
      <point x="92" y="-12"/>
    </contour>
    <contour>
      <point x="266" y="102" type="curve" smooth="yes"/>
      <point x="192" y="102"/>
      <point x="172" y="154"/>
      <point x="172" y="251" type="curve" smooth="yes"/>
      <point x="172" y="348"/>
      <point x="192" y="398"/>
      <point x="266" y="398" type="curve" smooth="yes"/>
      <point x="340" y="398"/>
      <point x="360" y="348"/>
      <point x="360" y="251" type="curve" smooth="yes"/>
      <point x="360" y="154"/>
      <point x="340" y="102"/>
    </contour>
  </outline>
</glyph>
<glyph name="q" format="2">
  <advance width="543"/>
  <unicode hex="0071"/>
  <outline>
    <contour>
      <point x="347" y="-210" type="line"/>
      <point x="481" y="-210" type="line"/>
      <point x="481" y="499" type="line"/>
      <point x="422" y="505"/>
      <point x="328" y="512"/>
      <point x="286" y="512" type="curve" smooth="yes"/>
      <point x="110" y="512"/>
      <point x="38" y="458"/>
      <point x="38" y="243" type="curve" smooth="yes"/>
      <point x="38" y="51"/>
      <point x="103" y="-12"/>
      <point x="239" y="-12" type="curve" smooth="yes"/>
      <point x="271" y="-12"/>
      <point x="319" y="3"/>
      <point x="347" y="15" type="curve"/>
    </contour>
    <contour>
      <point x="257" y="108" type="curve" smooth="yes"/>
      <point x="205" y="108"/>
      <point x="172" y="142"/>
      <point x="172" y="243" type="curve" smooth="yes"/>
      <point x="172" y="351"/>
      <point x="194" y="396"/>
      <point x="286" y="396" type="curve" smooth="yes"/>
      <point x="304" y="396"/>
      <point x="331" y="394"/>
      <point x="347" y="392" type="curve"/>
      <point x="347" y="121" type="line"/>
      <point x="326" y="115"/>
      <point x="286" y="108"/>
    </contour>
  </outline>
</glyph>
<glyph name="s" format="2">
  <advance width="472"/>
  <unicode hex="0073"/>
  <anchor x="241" y="0" name="bottom"/>
  <outline>
    <contour>
      <point x="236" y="-12" type="curve" smooth="yes"/>
      <point x="361" y="-12"/>
      <point x="437" y="33"/>
      <point x="437" y="150" type="curve" smooth="yes"/>
      <point x="437" y="251"/>
      <point x="396" y="285"/>
      <point x="280" y="306" type="curve" smooth="yes"/>
      <point x="188" y="323"/>
      <point x="169" y="328"/>
      <point x="169" y="351" type="curve" smooth="yes"/>
      <point x="169" y="378"/>
      <point x="181" y="391"/>
      <point x="239" y="391" type="curve" smooth="yes"/>
      <point x="281" y="391"/>
      <point x="368" y="382"/>
      <point x="421" y="375" type="curve"/>
      <point x="423" y="486" type="line"/>
      <point x="371" y="497"/>
      <point x="282" y="511"/>
      <point x="229" y="511" type="curve" smooth="yes"/>
      <point x="124" y="511"/>
      <point x="36" y="464"/>
      <point x="36" y="348" type="curve" smooth="yes"/>
      <point x="36" y="238"/>
      <point x="93" y="212"/>
      <point x="201" y="194" type="curve" smooth="yes"/>
      <point x="293" y="179"/>
      <point x="304" y="169"/>
      <point x="304" y="147" type="curve" smooth="yes"/>
      <point x="304" y="121"/>
      <point x="287" y="108"/>
      <point x="223" y="108" type="curve" smooth="yes"/>
      <point x="186" y="108"/>
      <point x="101" y="117"/>
      <point x="48" y="124" type="curve"/>
      <point x="44" y="12" type="line"/>
      <point x="95" y="2"/>
      <point x="182" y="-12"/>
    </contour>
  </outline>
</glyph>
<glyph name="u" format="2">
  <advance width="553"/>
  <unicode hex="0075"/>
  <outline>
    <contour>
      <point x="221" y="-12" type="curve" smooth="yes"/>
      <point x="269" y="-12"/>
      <point x="304" y="0"/>
      <point x="358" y="28" type="curve"/>
      <point x="358" y="0" type="line"/>
      <point x="491" y="0" type="line"/>
      <point x="491" y="500" type="line"/>
      <point x="357" y="500" type="line"/>
      <point x="357" y="126" type="line"/>
      <point x="337" y="118"/>
      <point x="297" y="108"/>
      <point x="262" y="108" type="curve" smooth="yes"/>
      <point x="195" y="108"/>
      <point x="191" y="146"/>
      <point x="191" y="236" type="curve" smooth="yes"/>
      <point x="191" y="500" type="line"/>
      <point x="57" y="500" type="line"/>
      <point x="57" y="238" type="line" smooth="yes"/>
      <point x="57" y="80"/>
      <point x="87" y="-12"/>
    </contour>
  </outline>
</glyph>
<glyph name="v" format="2">
  <advance width="498"/>
  <unicode hex="0076"/>
  <outline>
    <contour>
      <point x="135" y="0" type="line"/>
      <point x="363" y="0" type="line"/>
      <point x="483" y="500" type="line"/>
      <point x="347" y="500" type="line"/>
      <point x="263" y="114" type="line"/>
      <point x="235" y="114" type="line"/>
      <point x="155" y="500" type="line"/>
      <point x="15" y="500" type="line"/>
    </contour>
  </outline>
</glyph>
<glyph name="bar" format="2">
  <advance width="268"/>
  <unicode hex="007C"/>
  <outline>
    <contour>
      <point x="67" y="-210" type="line"/>
      <point x="201" y="-210" type="line"/>
      <point x="201" y="700" type="line"/>
      <point x="67" y="700" type="line"/>
    </contour>
  </outline>
</glyph>
<glyph name="asciitilde" format="2">
  <advance width="560"/>
  <unicode hex="007E"/>
  <outline>
    <contour>
      <point x="384" y="170" type="curve" smooth="yes"/>
      <point x="428" y="170"/>
      <point x="474" y="199"/>
      <point x="497" y="221" type="curve"/>
      <point x="489" y="328" type="line"/>
      <point x="462" y="312"/>
      <point x="415" y="290"/>
      <point x="387" y="290" type="curve" smooth="yes"/>
      <point x="338" y="290"/>
      <point x="236" y="334"/>
      <point x="184" y="334" type="curve" smooth="yes"/>
      <point x="140" y="334"/>
      <point x="88" y="304"/>
      <point x="61" y="282" type="curve"/>
      <point x="71" y="175" type="line"/>
      <point x="97" y="192"/>
      <point x="145" y="214"/>
      <point x="180" y="214" type="curve" smooth="yes"/>
      <point x="213" y="214"/>
      <point x="335" y="170"/>
    </contour>
  </outline>
</glyph>
<glyph name="currency" format="2">
  <advance width="560"/>
  <unicode hex="00A4"/>
  <outline>
    <contour>
      <point x="280" y="55" type="curve" smooth="yes"/>
      <point x="388" y="56"/>
      <point x="477" y="144"/>
      <point x="477" y="252" type="curve" smooth="yes"/>
      <point x="477" y="360"/>
      <point x="388" y="449"/>
      <point x="280" y="449" type="curve" smooth="yes"/>
      <point x="172" y="449"/>
      <point x="83" y="360"/>
      <point x="83" y="252" type="curve" smooth="yes"/>
      <point x="83" y="144"/>
      <point x="172" y="56"/>
    </contour>
    <contour>
      <point x="122" y="2" type="line"/>
      <point x="231" y="111" type="line"/>
      <point x="139" y="203" type="line"/>
      <point x="30" y="94" type="line"/>
    </contour>
    <contour>
      <point x="280" y="166" type="curve" smooth="yes"/>
      <point x="233" y="166"/>
      <point x="194" y="205"/>
      <point x="194" y="252" type="curve" smooth="yes"/>
      <point x="194" y="299"/>
      <point x="233" y="338"/>
      <point x="280" y="338" type="curve" smooth="yes"/>
      <point x="327" y="338"/>
      <point x="366" y="299"/>
      <point x="366" y="252" type="curve" smooth="yes"/>
      <point x="366" y="205"/>
      <point x="327" y="166"/>
    </contour>
    <contour>
      <point x="139" y="301" type="line"/>
      <point x="231" y="393" type="line"/>
      <point x="122" y="502" type="line"/>
      <point x="30" y="410" type="line"/>
    </contour>
    <contour>
      <point x="438" y="2" type="line"/>
      <point x="530" y="94" type="line"/>
      <point x="421" y="203" type="line"/>
      <point x="329" y="111" type="line"/>
    </contour>
    <contour>
      <point x="421" y="301" type="line"/>
      <point x="530" y="410" type="line"/>
      <point x="438" y="502" type="line"/>
      <point x="329" y="393" type="line"/>
    </contour>
  </outline>
</glyph>
<glyph name="brokenbar" format="2">
  <advance width="272"/>
  <unicode hex="00A6"/>
  <outline>
    <contour>
      <point x="69" y="328" type="line"/>
      <point x="203" y="328" type="line"/>
      <point x="203" y="700" type="line"/>
      <point x="69" y="700" type="line"/>
    </contour>
    <contour>
      <point x="69" y="-210" type="line"/>
      <point x="203" y="-210" type="line"/>
      <point x="203" y="170" type="line"/>
      <point x="69" y="170" type="line"/>
    </contour>
  </outline>
</glyph>
<glyph name="section" format="2">
  <advance width="517"/>
  <unicode hex="00A7"/>
  <outline>
    <contour>
      <point x="246" y="-190" type="curve" smooth="yes"/>
      <point x="397" y="-190"/>
      <point x="463" y="-137"/>
      <point x="463" y="-7" type="curve" smooth="yes"/>
      <point x="463" y="59"/>
      <point x="449" y="80"/>
      <point x="425" y="102" type="curve"/>
      <point x="453" y="142"/>
      <point x="475" y="196"/>
      <point x="475" y="241" type="curve" smooth="yes"/>
      <point x="475" y="339"/>
      <point x="438" y="364"/>
      <point x="323" y="392" type="curve" smooth="yes"/>
      <point x="225" y="416"/>
      <point x="187" y="426"/>
      <point x="187" y="457" type="curve" smooth="yes"/>
      <point x="187" y="505"/>
      <point x="204" y="522"/>
      <point x="283" y="522" type="curve" smooth="yes"/>
      <point x="318" y="522"/>
      <point x="395" y="513"/>
      <point x="444" y="506" type="curve"/>
      <point x="450" y="614" type="line" name="hr00"/>
      <point x="405" y="624"/>
      <point x="326" y="638"/>
      <point x="274" y="638" type="curve" smooth="yes"/>
      <point x="134" y="638"/>
      <point x="57" y="581"/>
      <point x="57" y="455" type="curve" smooth="yes"/>
      <point x="57" y="396"/>
      <point x="72" y="368"/>
      <point x="101" y="347" type="curve"/>
      <point x="70" y="322"/>
      <point x="37" y="261"/>
      <point x="37" y="213" type="curve" smooth="yes"/>
      <point x="37" y="115"/>
      <point x="82" y="85"/>
      <point x="193" y="57" type="curve" smooth="yes"/>
      <point x="303" y="29"/>
      <point x="335" y="22"/>
      <point x="335" y="-17" type="curve" smooth="yes"/>
      <point x="335" y="-58"/>
      <point x="304" y="-74"/>
      <point x="236" y="-74" type="curve" smooth="yes"/>
      <point x="196" y="-74"/>
      <point x="119" y="-65"/>
      <point x="73" y="-59" type="curve"/>
      <point x="60" y="-167" type="line"/>
      <point x="110" y="-177"/>
      <point x="195" y="-190"/>
    </contour>
    <contour>
      <point x="321" y="149" type="curve"/>
      <point x="298" y="157"/>
      <point x="268" y="167"/>
      <point x="232" y="177" type="curve" smooth="yes"/>
      <point x="184" y="190"/>
      <point x="172" y="198"/>
      <point x="172" y="238" type="curve" smooth="yes"/>
      <point x="172" y="259"/>
      <point x="181" y="290"/>
      <point x="189" y="302" type="curve"/>
      <point x="195" y="300"/>
      <point x="228" y="292"/>
      <point x="258" y="285" type="curve" smooth="yes"/>
      <point x="324" y="268"/>
      <point x="339" y="255"/>
      <point x="339" y="222" type="curve" smooth="yes"/>
      <point x="339" y="198"/>
      <point x="331" y="162"/>
    </contour>
  </outline>
</glyph>
<glyph name="guillemotleft" format="2">
  <advance width="601"/>
  <unicode hex="00AB"/>
  <outline>
    <contour>
      <point x="323" y="194" type="line"/>
      <point x="546" y="23" type="line"/>
      <point x="546" y="158" type="line"/>
      <point x="437" y="244" type="line"/>
      <point x="546" y="319" type="line"/>
      <point x="546" y="454" type="line"/>
      <point x="323" y="290" type="line"/>
    </contour>
    <contour>
      <point x="40" y="194" type="line"/>
      <point x="263" y="23" type="line"/>
      <point x="263" y="158" type="line"/>
      <point x="154" y="244" type="line"/>
      <point x="263" y="319" type="line"/>
      <point x="263" y="454" type="line"/>
      <point x="40" y="290" type="line"/>
    </contour>
  </outline>
</glyph>
<glyph name="plusminus" format="2">
  <advance width="560"/>
  <unicode hex="00B1"/>
  <outline>
    <contour>
      <point x="219" y="170" type="line"/>
      <point x="339" y="170" type="line"/>
      <point x="339" y="270" type="line"/>
      <point x="510" y="270" type="line"/>
      <point x="510" y="390" type="line"/>
      <point x="339" y="390" type="line"/>
      <point x="339" y="498" type="line"/>
      <point x="219" y="498" type="line"/>
      <point x="219" y="390" type="line"/>
      <point x="50" y="390" type="line"/>
      <point x="50" y="270" type="line"/>
      <point x="219" y="270" type="line"/>
    </contour>
    <contour>
      <point x="50" y="19" type="line"/>
      <point x="510" y="19" type="line"/>
      <point x="510" y="139" type="line"/>
      <point x="50" y="139" type="line"/>
    </contour>
  </outline>
</glyph>
<glyph name="twosuperior" format="2">
  <advance width="280"/>
  <unicode hex="00B2"/>
  <outline>
    <contour>
      <point x="21" y="478" type="line"/>
      <point x="252" y="478" type="line"/>
      <point x="252" y="573" type="line"/>
      <point x="158" y="573" type="line"/>
      <point x="196" y="601" type="line" smooth="yes"/>
      <point x="236" y="630"/>
      <point x="252" y="656"/>
      <point x="252" y="701" type="curve" smooth="yes"/>
      <point x="252" y="772"/>
      <point x="224" y="801"/>
      <point x="141" y="801" type="curve" smooth="yes"/>
      <point x="108" y="801"/>
      <point x="54" y="796"/>
      <point x="23" y="792" type="curve"/>
      <point x="27" y="693" type="line"/>
      <point x="50" y="696"/>
      <point x="87" y="699"/>
      <point x="103" y="699" type="curve" smooth="yes"/>
      <point x="128" y="699"/>
      <point x="140" y="696"/>
      <point x="140" y="684" type="curve" smooth="yes"/>
      <point x="140" y="669"/>
      <point x="128" y="654"/>
      <point x="94" y="627" type="curve" smooth="yes"/>
      <point x="21" y="568" type="line"/>
    </contour>
  </outline>
</glyph>
<glyph name="acute" format="2">
  <advance width="268"/>
  <unicode hex="00B4"/>
  <outline>
    <contour>
      <point x="35" y="564" type="line"/>
      <point x="297" y="638" type="line"/>
      <point x="257" y="753" type="line"/>
      <point x="5" y="651" type="line"/>
    </contour>
  </outline>
</glyph>
<glyph name="ordmasculine" format="2">
  <advance width="420"/>
  <unicode hex="00BA"/>
  <outline>
    <contour>
      <point x="211" y="314" type="curve" smooth="yes"/>
      <point x="322" y="314"/>
      <point x="380" y="370"/>
      <point x="380" y="489" type="curve" smooth="yes"/>
      <point x="380" y="607"/>
      <point x="322" y="659"/>
      <point x="211" y="659" type="curve" smooth="yes"/>
      <point x="99" y="659"/>
      <point x="40" y="607"/>
      <point x="40" y="489" type="curve" smooth="yes"/>
      <point x="40" y="370"/>
      <point x="99" y="314"/>
    </contour>
    <contour>
      <point x="211" y="419" type="curve" smooth="yes"/>
      <point x="171" y="419"/>
      <point x="160" y="442"/>
      <point x="160" y="488" type="curve" smooth="yes"/>
      <point x="160" y="534"/>
      <point x="171" y="555"/>
      <point x="211" y="555" type="curve" smooth="yes"/>
      <point x="251" y="555"/>
      <point x="259" y="534"/>
      <point x="259" y="488" type="curve" smooth="yes"/>
      <point x="259" y="442"/>
      <point x="251" y="419"/>
    </contour>
  </outline>
</glyph>
<glyph name="Eth" format="2">
  <advance width="642"/>
  <unicode hex="00D0"/>
  <outline>
    <contour>
      <point x="25" y="277" type="line"/>
      <point x="345" y="277" type="line"/>
      <point x="345" y="409" type="line"/>
      <point x="25" y="409" type="line"/>
    </contour>
    <component base="D" xOffset="5"/>
  </outline>
</glyph>
<glyph name="eth" format="2">
  <advance width="567"/>
  <unicode hex="00F0"/>
  <outline>
    <contour>
      <point x="273" y="-9" type="curve" smooth="yes"/>
      <point x="455" y="-9"/>
      <point x="528" y="106"/>
      <point x="528" y="347" type="curve" smooth="yes"/>
      <point x="528" y="598"/>
      <point x="376" y="691"/>
      <point x="100" y="712" type="curve"/>
      <point x="82" y="618" type="line"/>
      <point x="318" y="575"/>
      <point x="376" y="518"/>
      <point x="386" y="414" type="curve"/>
      <point x="360" y="424"/>
      <point x="306" y="438"/>
      <point x="256" y="438" type="curve" smooth="yes"/>
      <point x="107" y="438"/>
      <point x="38" y="350"/>
      <point x="38" y="216" type="curve" smooth="yes"/>
      <point x="38" y="64"/>
      <point x="120" y="-9"/>
    </contour>
    <contour>
      <point x="273" y="111" type="curve" smooth="yes"/>
      <point x="206" y="111"/>
      <point x="180" y="152"/>
      <point x="180" y="216" type="curve" smooth="yes"/>
      <point x="180" y="268"/>
      <point x="205" y="320"/>
      <point x="264" y="320" type="curve" smooth="yes"/>
      <point x="317" y="320"/>
      <point x="365" y="307"/>
      <point x="386" y="298" type="curve"/>
      <point x="386" y="162"/>
      <point x="345" y="111"/>
    </contour>
    <contour>
      <point x="168" y="467" type="line"/>
      <point x="459" y="661" type="line"/>
      <point x="405" y="737" type="line"/>
      <point x="114" y="543" type="line"/>
    </contour>
  </outline>
</glyph>
<glyph name="Gdotaccent" format="2">
  <advance width="611"/>
  <unicode hex="0120"/>
  <outline>
    <contour>
      <point x="245" y="767" type="line"/>
      <point x="379" y="767" type="line"/>
      <point x="379" y="902" type="line"/>
      <point x="245" y="902" type="line"/>
    </contour>
    <component base="G"/>
  </outline>
</glyph>
<glyph name="Hbar" format="2">
  <advance width="685"/>
  <unicode hex="0126"/>
  <outline>
    <contour>
      <point x="19" y="486" type="line"/>
      <point x="673" y="486" type="line"/>
      <point x="673" y="602" type="line"/>
      <point x="19" y="602" type="line"/>
    </contour>
    <component base="H" xOffset="4"/>
  </outline>
</glyph>
<glyph name="Lacute" format="2">
  <advance width="473"/>
  <unicode hex="0139"/>
  <outline>
    <contour>
      <point x="74" y="0" type="line"/>
      <point x="461" y="0" type="line"/>
      <point x="461" y="133" type="line"/>
      <point x="212" y="133" type="line"/>
      <point x="212" y="690" type="line"/>
      <point x="74" y="690" type="line"/>
    </contour>
    <component base="acute.cap" xOffset="75" yOffset="-1"/>
  </outline>
</glyph>
<glyph name="OE" format="2">
  <advance width="902"/>
  <unicode hex="0152"/>
  <outline>
    <contour>
      <point x="298" y="-12" type="curve" smooth="yes"/>
      <point x="338" y="-12"/>
      <point x="390" y="-7"/>
      <point x="434" y="0" type="curve"/>
      <point x="861" y="0" type="line"/>
      <point x="861" y="120" type="line"/>
      <point x="559" y="120" type="line"/>
      <point x="559" y="283" type="line"/>
      <point x="801" y="283" type="line"/>
      <point x="801" y="401" type="line"/>
      <point x="559" y="401" type="line"/>
      <point x="559" y="560" type="line"/>
      <point x="861" y="560" type="line"/>
      <point x="861" y="680" type="line"/>
      <point x="422" y="680" type="line"/>
      <point x="383" y="687"/>
      <point x="338" y="692"/>
      <point x="298" y="692" type="curve" smooth="yes"/>
      <point x="96" y="692"/>
      <point x="38" y="598"/>
      <point x="38" y="340" type="curve" smooth="yes"/>
      <point x="38" y="102"/>
      <point x="88" y="-12"/>
    </contour>
    <contour>
      <point x="322" y="110" type="curve" smooth="yes"/>
      <point x="204" y="110"/>
      <point x="180" y="157"/>
      <point x="180" y="340" type="curve" smooth="yes"/>
      <point x="180" y="533"/>
      <point x="213" y="570"/>
      <point x="318" y="570" type="curve" smooth="yes"/>
      <point x="344" y="570"/>
      <point x="384" y="567"/>
      <point x="421" y="564" type="curve"/>
      <point x="421" y="116" type="line"/>
      <point x="386" y="112"/>
      <point x="348" y="110"/>
    </contour>
  </outline>
</glyph>
<glyph name="oe" format="2">
  <advance width="834"/>
  <unicode hex="0153"/>
  <outline>
    <contour>
      <point x="266" y="-12" type="curve" smooth="yes"/>
      <point x="336" y="-12"/>
      <point x="386" y="5"/>
      <point x="422" y="56" type="curve"/>
      <point x="457" y="3"/>
      <point x="507" y="-12"/>
      <point x="575" y="-12" type="curve" smooth="yes"/>
      <point x="643" y="-12"/>
      <point x="734" y="4"/>
      <point x="783" y="16" type="curve"/>
      <point x="781" y="120" type="line"/>
      <point x="737" y="116"/>
      <point x="656" y="111"/>
      <point x="596" y="111" type="curve" smooth="yes"/>
      <point x="524" y="111"/>
      <point x="496" y="135"/>
      <point x="495" y="192" type="curve"/>
      <point x="789" y="192" type="line"/>
      <point x="799" y="286" type="line"/>
      <point x="799" y="437"/>
      <point x="728" y="511"/>
      <point x="581" y="511" type="curve" smooth="yes"/>
      <point x="516" y="511"/>
      <point x="465" y="493"/>
      <point x="428" y="430" type="curve"/>
      <point x="392" y="491"/>
      <point x="340" y="511"/>
      <point x="266" y="511" type="curve" smooth="yes"/>
      <point x="92" y="511"/>
      <point x="36" y="404"/>
      <point x="36" y="250" type="curve" smooth="yes"/>
      <point x="36" y="96"/>
      <point x="92" y="-12"/>
    </contour>
    <contour>
      <point x="266" y="109" type="curve" smooth="yes"/>
      <point x="192" y="109"/>
      <point x="172" y="158"/>
      <point x="172" y="250" type="curve" smooth="yes"/>
      <point x="172" y="342"/>
      <point x="192" y="390"/>
      <point x="266" y="390" type="curve" smooth="yes"/>
      <point x="340" y="390"/>
      <point x="360" y="342"/>
      <point x="360" y="250" type="curve" smooth="yes"/>
      <point x="360" y="158"/>
      <point x="340" y="109"/>
    </contour>
    <contour>
      <point x="494" y="295" type="line"/>
      <point x="494" y="360"/>
      <point x="517" y="392"/>
      <point x="581" y="392" type="curve" smooth="yes"/>
      <point x="644" y="392"/>
      <point x="667" y="366"/>
      <point x="667" y="295" type="curve"/>
    </contour>
  </outline>
</glyph>
<glyph name="florin" format="2">
  <advance width="560"/>
  <unicode hex="0192"/>
  <outline>
    <contour>
      <point x="153" y="-230" type="curve" smooth="yes"/>
      <point x="267" y="-230"/>
      <point x="321" y="-189"/>
      <point x="321" y="-47" type="curve" smooth="yes" name="hr00"/>
      <point x="321" y="386" type="line"/>
      <point x="442" y="386" type="line"/>
      <point x="442" y="500" type="line"/>
      <point x="321" y="500" type="line"/>
      <point x="321" y="523" type="line" smooth="yes"/>
      <point x="321" y="573"/>
      <point x="331" y="592"/>
      <point x="369" y="592" type="curve" smooth="yes"/>
      <point x="392" y="592"/>
      <point x="426" y="591"/>
      <point x="445" y="590" type="curve"/>
      <point x="445" y="699" type="line"/>
      <point x="411" y="705"/>
      <point x="358" y="712"/>
      <point x="333" y="712" type="curve" smooth="yes"/>
      <point x="223" y="712"/>
      <point x="187" y="667"/>
      <point x="187" y="524" type="curve" smooth="yes"/>
      <point x="187" y="500" type="line"/>
      <point x="133" y="500" type="line"/>
      <point x="133" y="386" type="line"/>
      <point x="187" y="386" type="line"/>
      <point x="187" y="-44" type="line" smooth="yes"/>
      <point x="187" y="-94"/>
      <point x="164" y="-110"/>
      <point x="136" y="-110" type="curve" smooth="yes"/>
      <point x="121" y="-110"/>
      <point x="46" y="-107"/>
      <point x="44" y="-107" type="curve"/>
      <point x="44" y="-217" type="line"/>
      <point x="68" y="-223"/>
      <point x="114" y="-230"/>
    </contour>
  </outline>
</glyph>
<glyph name="circumflex" format="2">
  <advance width="268"/>
  <unicode hex="02C6"/>
  <outline>
    <contour>
      <point x="-24" y="580" type="line"/>
      <point x="99" y="580" type="line"/>
      <point x="145" y="647" type="line"/>
      <point x="191" y="580" type="line"/>
      <point x="314" y="580" type="line"/>
      <point x="186" y="731" type="line"/>
      <point x="102" y="731" type="line"/>
    </contour>
  </outline>
</glyph>
<glyph name="dotaccent" format="2">
  <advance width="268"/>
  <unicode hex="02D9"/>
  <outline>
    <contour>
      <point x="67" y="556" type="line"/>
      <point x="201" y="556" type="line"/>
      <point x="201" y="691" type="line"/>
      <point x="67" y="691" type="line"/>
    </contour>
  </outline>
</glyph>
<glyph name="tilde" format="2">
  <advance width="268"/>
  <unicode hex="02DC"/>
  <outline>
    <contour>
      <point x="213" y="585" type="curve" smooth="yes"/>
      <point x="251" y="585"/>
      <point x="295" y="620"/>
      <point x="318" y="647" type="curve"/>
      <point x="289" y="723" type="line"/>
      <point x="266" y="708"/>
      <point x="228" y="689"/>
      <point x="209" y="689" type="curve" smooth="yes"/>
      <point x="196" y="689"/>
      <point x="178" y="696"/>
      <point x="157" y="704" type="curve" smooth="yes"/>
      <point x="132" y="714"/>
      <point x="104" y="725"/>
      <point x="82" y="725" type="curve" smooth="yes"/>
      <point x="44" y="725"/>
      <point x="0" y="691"/>
      <point x="-22" y="665" type="curve"/>
      <point x="7" y="590" type="line"/>
      <point x="28" y="603"/>
      <point x="64" y="621"/>
      <point x="84" y="621" type="curve" smooth="yes"/>
      <point x="100" y="621"/>
      <point x="120" y="613"/>
      <point x="141" y="605" type="curve" smooth="yes"/>
      <point x="165" y="595"/>
      <point x="191" y="585"/>
    </contour>
  </outline>
</glyph>
<glyph name="hungarumlaut" format="2">
  <advance width="268"/>
  <unicode hex="02DD"/>
  <outline>
    <contour>
      <point x="51" y="563" type="line"/>
      <point x="176" y="751" type="line"/>
      <point x="67" y="817" type="line"/>
      <point x="-50" y="628" type="line"/>
    </contour>
    <contour>
      <point x="255" y="563" type="line"/>
      <point x="380" y="751" type="line"/>
      <point x="271" y="818" type="line"/>
      <point x="154" y="628" type="line"/>
    </contour>
  </outline>
</glyph>
<glyph name="pi" format="2">
  <advance width="560"/>
  <unicode hex="03C0"/>
  <outline>
    <contour>
      <point x="523" y="-10" type="curve"/>
      <point x="523" y="104" type="line"/>
      <point x="465" y="104"/>
      <point x="454" y="121"/>
      <point x="454" y="154" type="curve" smooth="yes"/>
      <point x="454" y="420" type="line"/>
      <point x="320" y="415" type="line"/>
      <point x="320" y="154" type="line" smooth="yes"/>
      <point x="320" y="20"/>
      <point x="342" y="-10"/>
    </contour>
    <contour>
      <point x="74" y="0" type="line"/>
      <point x="209" y="0" type="line"/>
      <point x="237" y="411" type="line"/>
      <point x="108" y="410" type="line"/>
    </contour>
    <contour>
      <point x="18" y="373" type="line"/>
      <point x="70" y="385"/>
      <point x="135" y="394"/>
      <point x="124" y="375" type="curve"/>
      <point x="170" y="386" type="line"/>
      <point x="329" y="386" type="line"/>
      <point x="350" y="393" type="line"/>
      <point x="438" y="381"/>
      <point x="503" y="391"/>
      <point x="528" y="402" type="curve"/>
      <point x="528" y="512" type="line"/>
      <point x="506" y="507"/>
      <point x="461" y="500"/>
      <point x="419" y="500" type="curve" smooth="yes"/>
      <point x="168" y="500" type="line" smooth="yes"/>
      <point x="105" y="500"/>
      <point x="46" y="490"/>
      <point x="18" y="482" type="curve"/>
    </contour>
  </outline>
</glyph>
<glyph name="tahabove-ar" format="2">
  <unicode hex="0615"/>
  <anchor x="195" y="353" name="_top"/>
  <anchor x="195" y="626" name="top"/>
  <outline>
    <contour>
      <point x="68" y="426" type="curve"/>
      <point x="148" y="426" type="line"/>
      <point x="148" y="459"/>
      <point x="175" y="485"/>
      <point x="210" y="485" type="curve" smooth="yes"/>
      <point x="246" y="485"/>
      <point x="273" y="459"/>
      <point x="273" y="426" type="curve"/>
      <point x="353" y="426" type="line"/>
      <point x="353" y="501"/>
      <point x="290" y="559"/>
      <point x="210" y="559" type="curve" smooth="yes"/>
      <point x="130" y="559"/>
      <point x="68" y="501"/>
    </contour>
    <contour>
      <point x="36" y="353" type="line"/>
      <point x="353" y="353" type="line"/>
      <point x="353" y="426" type="line"/>
      <point x="36" y="426" type="line"/>
    </contour>
    <contour>
      <point x="68" y="426" type="line"/>
      <point x="148" y="426" type="line"/>
      <point x="148" y="608" type="line"/>
      <point x="68" y="608" type="line"/>
    </contour>
  </outline>
</glyph>
<glyph name="hah-ar" format="2">
  <advance width="595"/>
  <unicode hex="062D"/>
  <anchor x="270" y="-400" name="bottom"/>
  <anchor x="359" y="-102" name="center"/>
  <anchor x="270" y="573" name="top"/>
  <outline>
    <contour>
      <point x="466" y="-198" type="line"/>
      <point x="394" y="-208"/>
      <point x="344" y="-212"/>
      <point x="312" y="-212" type="curve" smooth="yes"/>
      <point x="211" y="-212"/>
      <point x="174" y="-174"/>
      <point x="174" y="-106" type="curve" smooth="yes"/>
      <point x="174" y="-38"/>
      <point x="211" y="0"/>
      <point x="312" y="0" type="curve" smooth="yes"/>
      <point x="401" y="0" type="line"/>
      <point x="401" y="120" type="line"/>
      <point x="312" y="120" type="line" smooth="yes"/>
      <point x="145" y="120"/>
      <point x="40" y="35"/>
      <point x="40" y="-105" type="curve" smooth="yes"/>
      <point x="40" y="-247"/>
      <point x="146" y="-332"/>
      <point x="310" y="-332" type="curve" smooth="yes"/>
      <point x="350" y="-332"/>
      <point x="394" y="-327"/>
      <point x="486" y="-306" type="curve"/>
    </contour>
    <contour>
      <point x="110" y="365" type="line"/>
      <point x="153" y="371"/>
      <point x="245" y="380"/>
      <point x="270" y="380" type="curve" smooth="yes"/>
      <point x="359" y="380"/>
      <point x="401" y="344"/>
      <point x="401" y="273" type="curve" smooth="yes"/>
      <point x="401" y="0" type="line"/>
      <point x="535" y="0" type="line"/>
      <point x="535" y="273" type="line" smooth="yes"/>
      <point x="535" y="415"/>
      <point x="426" y="500"/>
      <point x="270" y="500" type="curve" smooth="yes"/>
      <point x="214" y="500"/>
      <point x="155" y="490"/>
      <point x="96" y="474" type="curve"/>
    </contour>
  </outline>
</glyph>
<glyph name="reh-ar" format="2">
  <advance width="269"/>
  <unicode hex="0631"/>
  <anchor x="90" y="-350" name="bottom"/>
  <anchor x="142" y="573" name="top"/>
  <outline>
    <contour>
      <point x="26" y="-247" type="curve" smooth="yes"/>
      <point x="134" y="-247"/>
      <point x="209" y="-165"/>
      <point x="209" y="-42" type="curve" smooth="yes"/>
      <point x="209" y="500" type="line"/>
      <point x="75" y="500" type="line"/>
      <point x="75" y="-42" type="line" smooth="yes"/>
      <point x="75" y="-101"/>
      <point x="55" y="-127"/>
      <point x="26" y="-127" type="curve" smooth="yes"/>
      <point x="18" y="-127"/>
      <point x="6" y="-126"/>
      <point x="-15" y="-124" type="curve"/>
      <point x="-30" y="-243" type="line"/>
      <point x="-12" y="-245"/>
      <point x="9" y="-247"/>
    </contour>
  </outline>
</glyph>
<glyph name="seen-ar" format="2">
  <advance width="1276"/>
  <unicode hex="0633"/>
  <anchor x="859" y="-100" name="bottom"/>
  <anchor x="859" y="573" name="top"/>
  <outline>
    <contour>
      <point x="345" y="-248" type="curve" smooth="yes"/>
      <point x="518" y="-248"/>
      <point x="638" y="-150"/>
      <point x="638" y="-5" type="curve" smooth="yes"/>
      <point x="638" y="450" type="line"/>
      <point x="504" y="450" type="line"/>
      <point x="504" y="-5" type="line" smooth="yes"/>
      <point x="504" y="-81"/>
      <point x="449" y="-128"/>
      <point x="345" y="-128" type="curve" smooth="yes"/>
      <point x="240" y="-128"/>
      <point x="174" y="-74"/>
      <point x="174" y="1" type="curve" smooth="yes"/>
      <point x="174" y="37"/>
      <point x="186" y="135"/>
      <point x="208" y="274" type="curve"/>
      <point x="76" y="293" type="line"/>
      <point x="59" y="186"/>
      <point x="40" y="55"/>
      <point x="40" y="1" type="curve" smooth="yes"/>
      <point x="40" y="-143"/>
      <point x="170" y="-248"/>
    </contour>
    <contour>
      <point x="638" y="0" type="line"/>
      <point x="719" y="0" type="line" smooth="yes"/>
      <point x="866" y="0"/>
      <point x="926" y="76"/>
      <point x="926" y="250" type="curve" smooth="yes"/>
      <point x="926" y="450" type="line"/>
      <point x="792" y="450" type="line"/>
      <point x="792" y="250" type="line" smooth="yes"/>
      <point x="792" y="136"/>
      <point x="779" y="120"/>
      <point x="719" y="120" type="curve" smooth="yes"/>
      <point x="638" y="120" type="line"/>
    </contour>
    <contour>
      <point x="953" y="0" type="curve" smooth="yes"/>
      <point x="1216" y="0" type="line"/>
      <point x="1216" y="277" type="line" smooth="yes"/>
      <point x="1216" y="317"/>
      <point x="1200" y="428"/>
      <point x="1188" y="500" type="curve"/>
      <point x="1056" y="480" type="line"/>
      <point x="1071" y="392"/>
      <point x="1082" y="303"/>
      <point x="1082" y="277" type="curve" smooth="yes"/>
      <point x="1082" y="91" type="line"/>
      <point x="1106" y="120" type="line"/>
      <point x="953" y="120" type="line" smooth="yes"/>
      <point x="939" y="120"/>
      <point x="927" y="125"/>
      <point x="902" y="147" type="curve"/>
      <point x="813" y="57" type="line"/>
      <point x="855" y="20"/>
      <point x="903" y="0"/>
    </contour>
  </outline>
</glyph>
<glyph name="tah-ar" format="2">
  <advance width="800"/>
  <unicode hex="0637"/>
  <anchor x="424" y="-100" name="bottom"/>
  <anchor x="424" y="573" name="top"/>
  <outline>
    <contour>
      <point x="20" y="0" type="line"/>
      <point x="730" y="0" type="line"/>
      <point x="730" y="241" type="line" smooth="yes"/>
      <point x="730" y="353"/>
      <point x="687" y="500"/>
      <point x="497" y="500" type="curve" smooth="yes"/>
      <point x="331" y="500"/>
      <point x="251" y="388"/>
      <point x="168" y="285" type="curve"/>
      <point x="191" y="148" type="line"/>
      <point x="226" y="194"/>
      <point x="348" y="380"/>
      <point x="497" y="380" type="curve" smooth="yes"/>
      <point x="565" y="380"/>
      <point x="596" y="342"/>
      <point x="596" y="241" type="curve" smooth="yes"/>
      <point x="596" y="0" type="line"/>
      <point x="730" y="120" type="line"/>
      <point x="20" y="120" type="line"/>
    </contour>
    <contour>
      <point x="85" y="120" type="line"/>
      <point x="219" y="120" type="line"/>
      <point x="219" y="700" type="line"/>
      <point x="85" y="700" type="line"/>
    </contour>
  </outline>
</glyph>
<glyph name="kashida-ar" format="2">
  <advance width="250"/>
  <unicode hex="0640"/>
  <anchor x="125" y="-100" name="bottom"/>
  <anchor x="125" y="500" name="top"/>
  <outline>
    <contour>
      <point x="0" y="0" type="line"/>
      <point x="250" y="0" type="line"/>
      <point x="250" y="120" type="line"/>
      <point x="0" y="120" type="line"/>
    </contour>
    <component base="connection_r" xOffset="200"/>
    <component base="connection_l"/>
  </outline>
</glyph>
<glyph name="meem-ar" format="2">
  <advance width="677"/>
  <unicode hex="0645"/>
  <anchor x="324" y="-388" name="bottom"/>
  <anchor x="324" y="573" name="top"/>
  <outline>
    <contour>
      <point x="64" y="-333" type="curve"/>
      <point x="196" y="-313" type="line"/>
      <point x="185" y="-248"/>
      <point x="174" y="-186"/>
      <point x="174" y="-137" type="curve" smooth="yes"/>
      <point x="174" y="-14"/>
      <point x="243" y="0"/>
      <point x="285" y="0" type="curve" smooth="yes"/>
      <point x="309" y="0"/>
      <point x="488" y="0"/>
      <point x="607" y="0" type="curve"/>
      <point x="607" y="245" type="line" smooth="yes"/>
      <point x="607" y="432"/>
      <point x="516" y="500"/>
      <point x="336" y="500" type="curve" smooth="yes"/>
      <point x="251" y="500"/>
      <point x="177" y="485"/>
      <point x="145" y="473" type="curve"/>
      <point x="133" y="428"/>
      <point x="116" y="334"/>
      <point x="116" y="238" type="curve" smooth="yes"/>
      <point x="116" y="147"/>
      <point x="130" y="65"/>
      <point x="140" y="32" type="curve"/>
      <point x="268" y="67" type="line"/>
      <point x="259" y="98"/>
      <point x="250" y="177"/>
      <point x="250" y="238" type="curve" smooth="yes"/>
      <point x="250" y="302"/>
      <point x="260" y="388"/>
      <point x="274" y="442" type="curve"/>
      <point x="192" y="361" type="line"/>
      <point x="224" y="372"/>
      <point x="279" y="380"/>
      <point x="336" y="380" type="curve" smooth="yes"/>
      <point x="449" y="380"/>
      <point x="473" y="357"/>
      <point x="473" y="245" type="curve" smooth="yes"/>
      <point x="473" y="0" type="line"/>
      <point x="607" y="120" type="line"/>
      <point x="489" y="120"/>
      <point x="307" y="120"/>
      <point x="285" y="120" type="curve" smooth="yes"/>
      <point x="135" y="120"/>
      <point x="40" y="21"/>
      <point x="40" y="-137" type="curve" smooth="yes"/>
      <point x="40" y="-195"/>
      <point x="52" y="-265"/>
    </contour>
  </outline>
</glyph>
<glyph name="heh-ar" format="2">
  <advance width="622"/>
  <unicode hex="0647"/>
  <anchor x="311" y="-100" name="bottom"/>
  <anchor x="311" y="573" name="top"/>
  <outline>
    <contour>
      <point x="40" y="0" type="line"/>
      <point x="582" y="0" type="line"/>
      <point x="582" y="240" type="line" smooth="yes"/>
      <point x="582" y="432"/>
      <point x="491" y="500"/>
      <point x="311" y="500" type="curve" smooth="yes"/>
      <point x="131" y="500"/>
      <point x="40" y="432"/>
      <point x="40" y="240" type="curve" smooth="yes"/>
    </contour>
    <contour>
      <point x="174" y="60" type="line"/>
      <point x="174" y="240" type="line" smooth="yes"/>
      <point x="174" y="357"/>
      <point x="198" y="380"/>
      <point x="311" y="380" type="curve" smooth="yes"/>
      <point x="424" y="380"/>
      <point x="448" y="357"/>
      <point x="448" y="240" type="curve" smooth="yes"/>
      <point x="448" y="60" type="line"/>
      <point x="522" y="120" type="line"/>
      <point x="100" y="120" type="line"/>
    </contour>
  </outline>
</glyph>
<glyph name="waw-ar" format="2">
  <advance width="575"/>
  <unicode hex="0648"/>
  <anchor x="283" y="-350" name="bottom"/>
  <anchor x="283" y="573" name="top"/>
  <outline>
    <contour>
      <point x="277" y="-246" type="curve" smooth="yes"/>
      <point x="429" y="-246"/>
      <point x="505" y="-151"/>
      <point x="505" y="-6" type="curve" smooth="yes"/>
      <point x="505" y="500" type="line"/>
      <point x="263" y="500" type="line" smooth="yes"/>
      <point x="88" y="500"/>
      <point x="40" y="422"/>
      <point x="40" y="250" type="curve" smooth="yes"/>
      <point x="40" y="78"/>
      <point x="88" y="0"/>
      <point x="263" y="0" type="curve" smooth="yes"/>
      <point x="371" y="0" type="line"/>
      <point x="371" y="120" type="line"/>
      <point x="263" y="120" type="line" smooth="yes"/>
      <point x="184" y="120"/>
      <point x="174" y="125"/>
      <point x="174" y="250" type="curve" smooth="yes"/>
      <point x="174" y="375"/>
      <point x="184" y="380"/>
      <point x="263" y="380" type="curve" smooth="yes"/>
      <point x="445" y="380" type="line"/>
      <point x="371" y="423" type="line"/>
      <point x="371" y="-6" type="line" smooth="yes"/>
      <point x="371" y="-96"/>
      <point x="343" y="-126"/>
      <point x="277" y="-126" type="curve" smooth="yes"/>
      <point x="242" y="-126"/>
      <point x="196" y="-120"/>
      <point x="142" y="-108" type="curve"/>
      <point x="113" y="-225" type="line"/>
      <point x="167" y="-237"/>
      <point x="229" y="-246"/>
    </contour>
  </outline>
</glyph>
<glyph name="alefMaksura-ar" format="2">
  <advance width="921"/>
  <unicode hex="0649"/>
  <anchor x="450" y="-300" name="bottom"/>
  <anchor x="127" y="244" name="top"/>
  <outline>
    <contour>
      <point x="330" y="-248" type="curve" smooth="yes"/>
      <point x="613" y="-248" type="line" smooth="yes"/>
      <point x="767" y="-248"/>
      <point x="861" y="-153"/>
      <point x="861" y="-15" type="curve" smooth="yes"/>
      <point x="861" y="117"/>
      <point x="775" y="166"/>
      <point x="647" y="204" type="curve" smooth="yes"/>
      <point x="540" y="233"/>
      <point x="493" y="244"/>
      <point x="493" y="302" type="curve" smooth="yes"/>
      <point x="493" y="354"/>
      <point x="528" y="380"/>
      <point x="611" y="380" type="curve" smooth="yes"/>
      <point x="652" y="380"/>
      <point x="711" y="374"/>
      <point x="810" y="363" type="curve"/>
      <point x="825" y="475" type="line"/>
      <point x="716" y="493"/>
      <point x="663" y="500"/>
      <point x="614" y="500" type="curve" smooth="yes"/>
      <point x="459" y="500"/>
      <point x="359" y="431"/>
      <point x="359" y="291" type="curve" smooth="yes"/>
      <point x="359" y="169"/>
      <point x="436" y="144"/>
      <point x="609" y="89" type="curve" smooth="yes"/>
      <point x="703" y="59"/>
      <point x="727" y="48"/>
      <point x="727" y="-14" type="curve" smooth="yes"/>
      <point x="727" y="-91"/>
      <point x="690" y="-128"/>
      <point x="613" y="-128" type="curve" smooth="yes"/>
      <point x="330" y="-128" type="line" smooth="yes"/>
      <point x="235" y="-128"/>
      <point x="174" y="-80"/>
      <point x="174" y="-10" type="curve" smooth="yes"/>
      <point x="174" y="16"/>
      <point x="182" y="87"/>
      <point x="195" y="170" type="curve"/>
      <point x="63" y="189" type="line"/>
      <point x="49" y="101"/>
      <point x="40" y="24"/>
      <point x="40" y="-12" type="curve" smooth="yes"/>
      <point x="40" y="-148"/>
      <point x="165" y="-248"/>
    </contour>
  </outline>
</glyph>
<glyph name="dammatan-ar" format="2">
  <unicode hex="064C"/>
  <anchor x="189" y="528" name="_top"/>
  <anchor x="189" y="766" name="top"/>
  <outline>
    <contour>
      <point x="50" y="528" type="line"/>
      <point x="128" y="547" type="line"/>
      <point x="98" y="655" type="line"/>
      <point x="20" y="636" type="line"/>
    </contour>
    <contour>
      <point x="50" y="528" type="line"/>
      <point x="161" y="528" type="line"/>
      <point x="161" y="601" type="line"/>
      <point x="50" y="601" type="line"/>
    </contour>
    <component base="damma-ar" xOffset="67"/>
  </outline>
</glyph>
<glyph name="fatha-ar" format="2">
  <unicode hex="064E"/>
  <anchor x="151" y="528" name="_top"/>
  <anchor x="151" y="648" name="top"/>
  <outline>
    <contour>
      <point x="20" y="528" type="line"/>
      <point x="282" y="528" type="line"/>
      <point x="282" y="608" type="line"/>
      <point x="20" y="608" type="line"/>
    </contour>
  </outline>
</glyph>
<glyph name="shadda-ar" format="2">
  <unicode hex="0651"/>
  <anchor x="194" y="413" name="_top"/>
  <anchor x="194" y="651" name="top"/>
  <outline>
    <contour>
      <point x="258" y="413" type="curve" smooth="yes"/>
      <point x="349" y="413"/>
      <point x="385" y="485"/>
      <point x="358" y="611" type="curve"/>
      <point x="270" y="595" type="line"/>
      <point x="286" y="517"/>
      <point x="277" y="493"/>
      <point x="258" y="493" type="curve" smooth="yes"/>
      <point x="246" y="493"/>
      <point x="238" y="503"/>
      <point x="238" y="531" type="curve" smooth="yes"/>
      <point x="238" y="575" type="line"/>
      <point x="149" y="575" type="line"/>
      <point x="149" y="538" type="line" smooth="yes"/>
      <point x="149" y="457"/>
      <point x="186" y="413"/>
    </contour>
    <contour>
      <point x="129" y="413" type="curve" smooth="yes"/>
      <point x="201" y="413"/>
      <point x="238" y="457"/>
      <point x="238" y="538" type="curve" smooth="yes"/>
      <point x="238" y="575" type="line"/>
      <point x="149" y="575" type="line"/>
      <point x="149" y="531" type="line" smooth="yes"/>
      <point x="149" y="503"/>
      <point x="141" y="493"/>
      <point x="129" y="493" type="curve" smooth="yes"/>
      <point x="110" y="493"/>
      <point x="101" y="517"/>
      <point x="117" y="595" type="curve"/>
      <point x="29" y="611" type="line"/>
      <point x="2" y="485"/>
      <point x="38" y="413"/>
    </contour>
  </outline>
</glyph>
<glyph name="sukun-ar" format="2">
  <unicode hex="0652"/>
  <anchor x="138" y="428" name="_top"/>
  <anchor x="138" y="722" name="top"/>
  <outline>
    <contour>
      <point x="138" y="428" type="curve" smooth="yes"/>
      <point x="203" y="428"/>
      <point x="255" y="479"/>
      <point x="255" y="544" type="curve" smooth="yes"/>
      <point x="255" y="608"/>
      <point x="204" y="662"/>
      <point x="138" y="662" type="curve" smooth="yes"/>
      <point x="73" y="662"/>
      <point x="20" y="609"/>
      <point x="20" y="544" type="curve" smooth="yes"/>
      <point x="20" y="479"/>
      <point x="73" y="428"/>
    </contour>
    <contour>
      <point x="138" y="508" type="curve" smooth="yes"/>
      <point x="124" y="508"/>
      <point x="110" y="521"/>
      <point x="110" y="544" type="curve" smooth="yes"/>
      <point x="110" y="566"/>
      <point x="124" y="582"/>
      <point x="138" y="582" type="curve" smooth="yes"/>
      <point x="152" y="582"/>
      <point x="165" y="566"/>
      <point x="165" y="544" type="curve" smooth="yes"/>
      <point x="165" y="522"/>
      <point x="153" y="508"/>
    </contour>
  </outline>
</glyph>
<glyph name="two-ar" format="2">
  <advance width="561"/>
  <unicode hex="0662"/>
  <outline>
    <contour>
      <point x="110" y="0" type="line"/>
      <point x="244" y="0" type="line"/>
      <point x="244" y="660" type="line"/>
      <point x="110" y="540" type="line"/>
      <point x="531" y="540" type="line"/>
      <point x="531" y="660" type="line"/>
      <point x="110" y="660" type="line"/>
    </contour>
  </outline>
</glyph>
<glyph name="four-ar" format="2">
  <advance width="490"/>
  <unicode hex="0664"/>
  <outline>
    <contour>
      <point x="279" y="263" type="curve"/>
      <point x="279" y="383" type="line"/>
      <point x="212" y="383"/>
      <point x="184" y="410"/>
      <point x="184" y="468" type="curve" smooth="yes"/>
      <point x="184" y="525"/>
      <point x="213" y="553"/>
      <point x="277" y="553" type="curve" smooth="yes"/>
      <point x="312" y="553"/>
      <point x="348" y="544"/>
      <point x="399" y="532" type="curve"/>
      <point x="430" y="649" type="line"/>
      <point x="379" y="661"/>
      <point x="329" y="673"/>
      <point x="277" y="673" type="curve" smooth="yes"/>
      <point x="145" y="673"/>
      <point x="50" y="596"/>
      <point x="50" y="468" type="curve" smooth="yes"/>
      <point x="50" y="340"/>
      <point x="144" y="263"/>
    </contour>
    <contour>
      <point x="277" y="-27" type="curve" smooth="yes"/>
      <point x="329" y="-27"/>
      <point x="379" y="-15"/>
      <point x="430" y="-3" type="curve"/>
      <point x="399" y="114" type="line"/>
      <point x="348" y="102"/>
      <point x="312" y="93"/>
      <point x="277" y="93" type="curve" smooth="yes"/>
      <point x="213" y="93"/>
      <point x="184" y="121"/>
      <point x="184" y="178" type="curve" smooth="yes"/>
      <point x="184" y="236"/>
      <point x="212" y="263"/>
      <point x="279" y="263" type="curve"/>
      <point x="279" y="383" type="line"/>
      <point x="144" y="383"/>
      <point x="50" y="306"/>
      <point x="50" y="178" type="curve" smooth="yes"/>
      <point x="50" y="50"/>
      <point x="145" y="-27"/>
    </contour>
    <contour>
      <point x="279" y="263" type="line"/>
      <point x="346" y="263" type="line"/>
      <point x="346" y="383" type="line"/>
      <point x="279" y="383" type="line"/>
    </contour>
  </outline>
</glyph>
<glyph name="five-ar" format="2">
  <advance width="694"/>
  <unicode hex="0665"/>
  <outline>
    <contour>
      <point x="347" y="-4" type="curve" smooth="yes"/>
      <point x="492" y="-4"/>
      <point x="629" y="91"/>
      <point x="629" y="271" type="curve" smooth="yes"/>
      <point x="629" y="417"/>
      <point x="540" y="665"/>
      <point x="347" y="664" type="curve" smooth="yes"/>
      <point x="154" y="663"/>
      <point x="65" y="417"/>
      <point x="65" y="271" type="curve" smooth="yes"/>
      <point x="65" y="91"/>
      <point x="202" y="-4"/>
    </contour>
    <contour>
      <point x="347" y="116" type="curve" smooth="yes"/>
      <point x="256" y="116"/>
      <point x="199" y="172"/>
      <point x="199" y="278" type="curve" smooth="yes"/>
      <point x="199" y="402"/>
      <point x="278" y="544"/>
      <point x="347" y="544" type="curve" smooth="yes"/>
      <point x="416" y="544"/>
      <point x="495" y="404"/>
      <point x="495" y="278" type="curve" smooth="yes"/>
      <point x="495" y="171"/>
      <point x="438" y="116"/>
    </contour>
  </outline>
</glyph>
<glyph name="nine-ar" format="2">
  <advance width="536"/>
  <unicode hex="0669"/>
  <outline>
    <contour>
      <point x="312" y="0" type="line"/>
      <point x="446" y="0" type="line"/>
      <point x="446" y="660" type="line"/>
      <point x="274" y="660" type="line" smooth="yes"/>
      <point x="113" y="660"/>
      <point x="20" y="580"/>
      <point x="20" y="452" type="curve" smooth="yes"/>
      <point x="20" y="350"/>
      <point x="80" y="247"/>
      <point x="244" y="247" type="curve" smooth="yes"/>
      <point x="283" y="247"/>
      <point x="331" y="253"/>
      <point x="369" y="263" type="curve"/>
      <point x="335" y="379" type="line"/>
      <point x="304" y="371"/>
      <point x="274" y="367"/>
      <point x="244" y="367" type="curve" smooth="yes"/>
      <point x="179" y="367"/>
      <point x="154" y="390"/>
      <point x="154" y="452" type="curve" smooth="yes"/>
      <point x="154" y="512"/>
      <point x="184" y="540"/>
      <point x="274" y="540" type="curve" smooth="yes"/>
      <point x="446" y="540" type="line"/>
      <point x="312" y="660" type="line"/>
    </contour>
  </outline>
</glyph>
<glyph name="alefabove-ar" format="2">
  <unicode hex="0670"/>
  <anchor x="65" y="447" name="_top"/>
  <anchor x="65" y="686" name="top"/>
  <outline>
    <contour>
      <point x="20" y="447" type="line"/>
      <point x="109" y="447" type="line"/>
      <point x="109" y="606" type="line"/>
      <point x="20" y="606" type="line"/>
    </contour>
  </outline>
</glyph>
<glyph name="keheh-ar" format="2">
  <advance width="828"/>
  <unicode hex="06A9"/>
  <anchor x="458" y="-100" name="bottom"/>
  <anchor x="191" y="730" name="top"/>
  <outline>
    <contour>
      <point x="337" y="0" type="curve" smooth="yes"/>
      <point x="758" y="0" type="line"/>
      <point x="758" y="239" type="line" smooth="yes"/>
      <point x="758" y="343"/>
      <point x="717" y="485"/>
      <point x="538" y="485" type="curve" smooth="yes"/>
      <point x="363" y="485" type="line"/>
      <point x="391" y="539" type="line" smooth="yes"/>
      <point x="410" y="575"/>
      <point x="428" y="606"/>
      <point x="478" y="682" type="curve"/>
      <point x="366" y="748" type="line"/>
      <point x="318" y="675"/>
      <point x="294" y="635"/>
      <point x="272" y="595" type="curve" smooth="yes"/>
      <point x="225" y="502" type="line"/>
      <point x="317" y="365" type="line"/>
      <point x="538" y="365" type="line" smooth="yes"/>
      <point x="597" y="365"/>
      <point x="624" y="331"/>
      <point x="624" y="239" type="curve" smooth="yes"/>
      <point x="624" y="120" type="line"/>
      <point x="337" y="120" type="line" smooth="yes"/>
      <point x="202" y="120"/>
      <point x="174" y="143"/>
      <point x="174" y="212" type="curve" smooth="yes"/>
      <point x="174" y="242"/>
      <point x="178" y="267"/>
      <point x="197" y="367" type="curve"/>
      <point x="66" y="392" type="line"/>
      <point x="48" y="304"/>
      <point x="40" y="257"/>
      <point x="40" y="213" type="curve" smooth="yes"/>
      <point x="40" y="67"/>
      <point x="138" y="0"/>
    </contour>
  </outline>
</glyph>
<glyph name="noonghunna-ar" format="2">
  <advance width="708"/>
  <unicode hex="06BA"/>
  <anchor x="339" y="-330" name="bottom"/>
  <anchor x="339" y="500" name="top"/>
  <outline>
    <contour>
      <point x="345" y="-248" type="curve" smooth="yes"/>
      <point x="518" y="-248"/>
      <point x="638" y="-150"/>
      <point x="638" y="-5" type="curve" smooth="yes"/>
      <point x="638" y="500" type="line"/>
      <point x="504" y="500" type="line"/>
      <point x="504" y="-5" type="line" smooth="yes"/>
      <point x="504" y="-81"/>
      <point x="449" y="-128"/>
      <point x="345" y="-128" type="curve" smooth="yes"/>
      <point x="240" y="-128"/>
      <point x="174" y="-74"/>
      <point x="174" y="1" type="curve" smooth="yes"/>
      <point x="174" y="37"/>
      <point x="186" y="135"/>
      <point x="208" y="274" type="curve"/>
      <point x="76" y="293" type="line"/>
      <point x="59" y="186"/>
      <point x="40" y="55"/>
      <point x="40" y="1" type="curve" smooth="yes"/>
      <point x="40" y="-143"/>
      <point x="170" y="-248"/>
    </contour>
  </outline>
</glyph>
<glyph name="four-persian" format="2">
  <advance width="724"/>
  <unicode hex="06F4"/>
  <outline>
    <contour>
      <point x="399" y="278" type="curve" smooth="yes"/>
      <point x="574" y="278"/>
      <point x="684" y="361"/>
      <point x="684" y="500" type="curve" smooth="yes"/>
      <point x="684" y="601" type="line"/>
      <point x="550" y="601" type="line"/>
      <point x="550" y="500" type="line" smooth="yes"/>
      <point x="550" y="433"/>
      <point x="507" y="398"/>
      <point x="399" y="398" type="curve" smooth="yes"/>
      <point x="289" y="398"/>
      <point x="244" y="434"/>
      <point x="244" y="500" type="curve" smooth="yes"/>
      <point x="244" y="660" type="line"/>
      <point x="110" y="660" type="line"/>
      <point x="110" y="500" type="line" smooth="yes"/>
      <point x="110" y="362"/>
      <point x="222" y="278"/>
    </contour>
    <contour>
      <point x="110" y="0" type="line"/>
      <point x="244" y="0" type="line"/>
      <point x="244" y="660" type="line"/>
      <point x="110" y="660" type="line"/>
    </contour>
    <contour>
      <point x="421" y="321" type="curve"/>
      <point x="421" y="398" type="line"/>
      <point x="378" y="398"/>
      <point x="359" y="417"/>
      <point x="359" y="453" type="curve" smooth="yes"/>
      <point x="359" y="490"/>
      <point x="379" y="508"/>
      <point x="420" y="508" type="curve" smooth="yes"/>
      <point x="420" y="508"/>
      <point x="495" y="496"/>
      <point x="498" y="495" type="curve"/>
      <point x="518" y="570" type="line"/>
      <point x="485" y="578"/>
      <point x="453" y="586"/>
      <point x="420" y="586" type="curve" smooth="yes"/>
      <point x="334" y="586"/>
      <point x="273" y="536"/>
      <point x="273" y="453" type="curve" smooth="yes"/>
      <point x="273" y="371"/>
      <point x="333" y="321"/>
    </contour>
  </outline>
</glyph>
<glyph name="six-persian" format="2">
  <advance width="500"/>
  <unicode hex="06F6"/>
  <outline>
    <contour>
      <point x="289" y="263" type="curve"/>
      <point x="289" y="383" type="line"/>
      <point x="222" y="383"/>
      <point x="194" y="410"/>
      <point x="194" y="468" type="curve" smooth="yes"/>
      <point x="194" y="525"/>
      <point x="223" y="553"/>
      <point x="287" y="553" type="curve" smooth="yes"/>
      <point x="322" y="553"/>
      <point x="358" y="544"/>
      <point x="409" y="532" type="curve"/>
      <point x="440" y="649" type="line"/>
      <point x="389" y="661"/>
      <point x="339" y="673"/>
      <point x="287" y="673" type="curve" smooth="yes"/>
      <point x="155" y="673"/>
      <point x="60" y="596"/>
      <point x="60" y="468" type="curve" smooth="yes"/>
      <point x="60" y="340"/>
      <point x="154" y="263"/>
    </contour>
    <contour>
      <point x="60" y="0" type="curve"/>
      <point x="194" y="0" type="line"/>
      <point x="194" y="167"/>
      <point x="260" y="263"/>
      <point x="359" y="263" type="curve"/>
      <point x="359" y="383" type="line"/>
      <point x="183" y="383"/>
      <point x="60" y="239"/>
    </contour>
    <contour>
      <point x="289" y="263" type="line"/>
      <point x="359" y="263" type="line"/>
      <point x="359" y="383" type="line"/>
      <point x="289" y="383" type="line"/>
    </contour>
  </outline>
</glyph>
<glyph name="endash" format="2">
  <advance width="614"/>
  <unicode hex="2013"/>
  <outline>
    <contour>
      <point x="57" y="209" type="line"/>
      <point x="557" y="209" type="line"/>
      <point x="557" y="323" type="line"/>
      <point x="57" y="323" type="line"/>
    </contour>
  </outline>
</glyph>
<glyph name="emdash" format="2">
  <advance width="1114"/>
  <unicode hex="2014"/>
  <outline>
    <contour>
      <point x="57" y="209" type="line"/>
      <point x="1057" y="209" type="line"/>
      <point x="1057" y="323" type="line"/>
      <point x="57" y="323" type="line"/>
    </contour>
  </outline>
</glyph>
<glyph name="quotesinglbase" format="2">
  <advance width="256"/>
  <unicode hex="201A"/>
  <outline>
    <contour>
      <point x="23" y="-117" type="line"/>
      <point x="126" y="-117" type="line"/>
      <point x="211" y="130" type="line"/>
      <point x="71" y="130" type="line"/>
    </contour>
  </outline>
</glyph>
<glyph name="quotedblleft" format="2">
  <advance width="443"/>
  <unicode hex="201C"/>
  <outline>
    <contour>
      <point x="407" y="680" type="line"/>
      <point x="304" y="680" type="line"/>
      <point x="219" y="433" type="line"/>
      <point x="360" y="433" type="line"/>
    </contour>
    <contour>
      <point x="223" y="680" type="line"/>
      <point x="120" y="680" type="line"/>
      <point x="35" y="433" type="line"/>
      <point x="176" y="433" type="line"/>
    </contour>
  </outline>
</glyph>
<glyph name="quotedblbase" format="2">
  <advance width="421"/>
  <unicode hex="201E"/>
  <outline>
    <contour>
      <point x="41" y="-130" type="line"/>
      <point x="143" y="-130" type="line"/>
      <point x="229" y="117" type="line"/>
      <point x="88" y="117" type="line"/>
    </contour>
    <contour>
      <point x="225" y="-130" type="line"/>
      <point x="328" y="-130" type="line"/>
      <point x="413" y="117" type="line"/>
      <point x="273" y="117" type="line"/>
    </contour>
  </outline>
</glyph>
<glyph name="bullet" format="2">
  <advance width="450"/>
  <unicode hex="2022"/>
  <outline>
    <contour>
      <point x="100" y="100" type="line"/>
      <point x="350" y="100" type="line"/>
      <point x="350" y="380" type="line"/>
      <point x="100" y="380" type="line"/>
    </contour>
  </outline>
</glyph>
<glyph name="ellipsis" format="2">
  <advance width="766"/>
  <unicode hex="2026"/>
  <outline>
    <contour>
      <point x="566" y="0" type="line"/>
      <point x="710" y="0" type="line"/>
      <point x="710" y="166" type="line"/>
      <point x="566" y="166" type="line"/>
    </contour>
    <contour>
      <point x="56" y="0" type="line"/>
      <point x="200" y="0" type="line"/>
      <point x="200" y="166" type="line"/>
      <point x="56" y="166" type="line"/>
    </contour>
    <contour>
      <point x="311" y="0" type="line"/>
      <point x="455" y="0" type="line"/>
      <point x="455" y="166" type="line"/>
      <point x="311" y="166" type="line"/>
    </contour>
  </outline>
</glyph>
<glyph name="guilsinglright" format="2">
  <advance width="318"/>
  <unicode hex="203A"/>
  <outline>
    <contour>
      <point x="55" y="33" type="line"/>
      <point x="278" y="204" type="line"/>
      <point x="278" y="300" type="line"/>
      <point x="55" y="464" type="line"/>
      <point x="55" y="329" type="line"/>
      <point x="164" y="254" type="line"/>
      <point x="55" y="168" type="line"/>
    </contour>
  </outline>
</glyph>
<glyph name="zerosuperior" format="2">
  <advance width="280"/>
  <unicode hex="2070"/>
  <outline>
    <contour>
      <point x="140" y="467" type="curve" smooth="yes"/>
      <point x="225" y="467"/>
      <point x="269" y="504"/>
      <point x="269" y="632" type="curve" smooth="yes"/>
      <point x="269" y="760"/>
      <point x="225" y="801"/>
      <point x="140" y="801" type="curve" smooth="yes"/>
      <point x="55" y="801"/>
      <point x="11" y="760"/>
      <point x="11" y="632" type="curve" smooth="yes"/>
      <point x="11" y="504"/>
      <point x="55" y="467"/>
    </contour>
    <contour>
      <point x="140" y="562" type="curve" smooth="yes"/>
      <point x="127" y="562"/>
      <point x="121" y="567"/>
      <point x="121" y="632" type="curve" smooth="yes"/>
      <point x="121" y="698"/>
      <point x="127" y="706"/>
      <point x="140" y="706" type="curve" smooth="yes"/>
      <point x="154" y="706"/>
      <point x="159" y="698"/>
      <point x="159" y="632" type="curve" smooth="yes"/>
      <point x="159" y="567"/>
      <point x="154" y="562"/>
    </contour>
  </outline>
</glyph>
<glyph name="fivesuperior" format="2">
  <advance width="280"/>
  <unicode hex="2075"/>
  <outline>
    <contour>
      <point x="143" y="471" type="curve" smooth="yes"/>
      <point x="221" y="471"/>
      <point x="261" y="508"/>
      <point x="261" y="582" type="curve" smooth="yes"/>
      <point x="261" y="654"/>
      <point x="227" y="681"/>
      <point x="168" y="681" type="curve" smooth="yes"/>
      <point x="156" y="681"/>
      <point x="136" y="678"/>
      <point x="124" y="675" type="curve"/>
      <point x="127" y="700" type="line"/>
      <point x="251" y="700" type="line"/>
      <point x="251" y="790" type="line"/>
      <point x="44" y="790" type="line"/>
      <point x="33" y="599" type="line"/>
      <point x="111" y="588" type="line"/>
      <point x="118" y="590"/>
      <point x="130" y="592"/>
      <point x="137" y="592" type="curve" smooth="yes"/>
      <point x="147" y="592"/>
      <point x="151" y="587"/>
      <point x="151" y="576" type="curve" smooth="yes"/>
      <point x="151" y="566"/>
      <point x="143" y="561"/>
      <point x="126" y="561" type="curve" smooth="yes"/>
      <point x="99" y="561"/>
      <point x="57" y="566"/>
      <point x="33" y="570" type="curve"/>
      <point x="25" y="485" type="line"/>
      <point x="53" y="479"/>
      <point x="105" y="471"/>
    </contour>
  </outline>
</glyph>
<glyph name="sevensuperior" format="2">
  <advance width="280"/>
  <unicode hex="2077"/>
  <outline>
    <contour>
      <point x="158" y="468" type="line"/>
      <point x="253" y="689" type="line"/>
      <point x="253" y="790" type="line"/>
      <point x="26" y="790" type="line"/>
      <point x="26" y="685" type="line"/>
      <point x="128" y="685" type="line"/>
      <point x="128" y="672" type="line"/>
      <point x="37" y="487" type="line"/>
    </contour>
  </outline>
</glyph>
<glyph name="eightsuperior" format="2">
  <advance width="280"/>
  <unicode hex="2078"/>
  <outline>
    <contour>
      <point x="140" y="467" type="curve" smooth="yes"/>
      <point x="222" y="467"/>
      <point x="268" y="493"/>
      <point x="268" y="572" type="curve" smooth="yes"/>
      <point x="268" y="609"/>
      <point x="250" y="632"/>
      <point x="237" y="640" type="curve"/>
      <point x="249" y="651"/>
      <point x="264" y="678"/>
      <point x="264" y="711" type="curve" smooth="yes"/>
      <point x="264" y="769"/>
      <point x="224" y="801"/>
      <point x="140" y="801" type="curve" smooth="yes"/>
      <point x="55" y="801"/>
      <point x="17" y="769"/>
      <point x="17" y="712" type="curve" smooth="yes"/>
      <point x="17" y="675"/>
      <point x="32" y="650"/>
      <point x="44" y="641" type="curve"/>
      <point x="30" y="631"/>
      <point x="12" y="605"/>
      <point x="12" y="572" type="curve" smooth="yes"/>
      <point x="12" y="493"/>
      <point x="57" y="467"/>
    </contour>
    <contour>
      <point x="140" y="552" type="curve" smooth="yes"/>
      <point x="127" y="552"/>
      <point x="121" y="561"/>
      <point x="121" y="574" type="curve" smooth="yes"/>
      <point x="121" y="582"/>
      <point x="127" y="593"/>
      <point x="133" y="599" type="curve"/>
      <point x="147" y="599" type="line"/>
      <point x="153" y="593"/>
      <point x="159" y="582"/>
      <point x="159" y="574" type="curve" smooth="yes"/>
      <point x="159" y="561"/>
      <point x="153" y="552"/>
    </contour>
    <contour>
      <point x="133" y="672" type="line"/>
      <point x="128" y="678"/>
      <point x="122" y="689"/>
      <point x="122" y="697" type="curve" smooth="yes"/>
      <point x="122" y="710"/>
      <point x="129" y="716"/>
      <point x="140" y="716" type="curve" smooth="yes"/>
      <point x="152" y="716"/>
      <point x="158" y="709"/>
      <point x="158" y="697" type="curve" smooth="yes"/>
      <point x="158" y="689"/>
      <point x="152" y="678"/>
      <point x="147" y="672" type="curve"/>
    </contour>
  </outline>
</glyph>
<glyph name="ninesuperior" format="2">
  <advance width="280"/>
  <unicode hex="2079"/>
  <outline>
    <contour>
      <point x="134" y="467" type="curve" smooth="yes"/>
      <point x="231" y="467"/>
      <point x="265" y="524"/>
      <point x="265" y="636" type="curve" smooth="yes"/>
      <point x="265" y="743"/>
      <point x="227" y="801"/>
      <point x="134" y="801" type="curve" smooth="yes"/>
      <point x="62" y="801"/>
      <point x="15" y="759"/>
      <point x="15" y="685" type="curve" smooth="yes"/>
      <point x="15" y="616"/>
      <point x="49" y="581"/>
      <point x="117" y="581" type="curve" smooth="yes"/>
      <point x="123" y="581"/>
      <point x="139" y="583"/>
      <point x="152" y="585" type="curve"/>
      <point x="152" y="575"/>
      <point x="146" y="562"/>
      <point x="119" y="562" type="curve" smooth="yes"/>
      <point x="91" y="562"/>
      <point x="53" y="565"/>
      <point x="32" y="568" type="curve"/>
      <point x="26" y="481" type="line" name="hr00"/>
      <point x="52" y="475"/>
      <point x="99" y="467"/>
    </contour>
    <contour>
      <point x="138" y="663" type="curve" smooth="yes"/>
      <point x="130" y="663"/>
      <point x="122" y="671"/>
      <point x="122" y="685" type="curve" smooth="yes"/>
      <point x="122" y="699"/>
      <point x="128" y="708"/>
      <point x="138" y="708" type="curve" smooth="yes"/>
      <point x="150" y="708"/>
      <point x="157" y="696"/>
      <point x="157" y="669" type="curve"/>
      <point x="152" y="666"/>
      <point x="144" y="663"/>
    </contour>
  </outline>
</glyph>
<glyph name="Euro" format="2">
  <advance width="560"/>
  <unicode hex="20AC"/>
  <outline>
    <contour>
      <point x="26" y="355" type="line"/>
      <point x="462" y="355" type="line"/>
      <point x="462" y="457" type="line"/>
      <point x="26" y="457" type="line"/>
    </contour>
    <contour>
      <point x="26" y="187" type="line"/>
      <point x="462" y="187" type="line"/>
      <point x="462" y="289" type="line"/>
      <point x="26" y="289" type="line"/>
    </contour>
    <contour>
      <point x="333" y="-12" type="curve" smooth="yes"/>
      <point x="393" y="-12"/>
      <point x="481" y="1"/>
      <point x="525" y="11" type="curve"/>
      <point x="522" y="120" type="line"/>
      <point x="484" y="115"/>
      <point x="401" y="107"/>
      <point x="356" y="107" type="curve" smooth="yes"/>
      <point x="242" y="107"/>
      <point x="219" y="152"/>
      <point x="219" y="330" type="curve" smooth="yes"/>
      <point x="219" y="518"/>
      <point x="251" y="553"/>
      <point x="353" y="553" type="curve" smooth="yes"/>
      <point x="396" y="553"/>
      <point x="478" y="546"/>
      <point x="522" y="539" type="curve"/>
      <point x="526" y="646" type="line"/>
      <point x="486" y="655"/>
      <point x="402" y="672"/>
      <point x="333" y="672" type="curve" smooth="yes"/>
      <point x="137" y="672"/>
      <point x="81" y="581"/>
      <point x="81" y="330" type="curve" smooth="yes"/>
      <point x="81" y="99"/>
      <point x="129" y="-12"/>
    </contour>
  </outline>
</glyph>
<glyph name="partialdiff" format="2">
  <advance width="560"/>
  <unicode hex="2202"/>
  <outline>
    <contour>
      <point x="263" y="-9" type="curve" smooth="yes"/>
      <point x="445" y="-9"/>
      <point x="518" y="106"/>
      <point x="518" y="347" type="curve" smooth="yes"/>
      <point x="518" y="593"/>
      <point x="445" y="712"/>
      <point x="262" y="712" type="curve" smooth="yes"/>
      <point x="192" y="712"/>
      <point x="118" y="686"/>
      <point x="81" y="667" type="curve"/>
      <point x="85" y="564" type="line"/>
      <point x="120" y="579"/>
      <point x="186" y="598"/>
      <point x="239" y="598" type="curve" smooth="yes"/>
      <point x="339" y="598"/>
      <point x="366" y="550"/>
      <point x="374" y="414" type="curve"/>
      <point x="349" y="424"/>
      <point x="297" y="438"/>
      <point x="247" y="438" type="curve" smooth="yes"/>
      <point x="107" y="438"/>
      <point x="28" y="358"/>
      <point x="28" y="216" type="curve" smooth="yes"/>
      <point x="28" y="64"/>
      <point x="110" y="-9"/>
    </contour>
    <contour>
      <point x="263" y="105" type="curve" smooth="yes"/>
      <point x="196" y="105"/>
      <point x="172" y="148"/>
      <point x="172" y="216" type="curve" smooth="yes"/>
      <point x="172" y="278"/>
      <point x="195" y="324"/>
      <point x="264" y="324" type="curve" smooth="yes"/>
      <point x="317" y="324"/>
      <point x="358" y="311"/>
      <point x="374" y="302" type="curve"/>
      <point x="374" y="160"/>
      <point x="335" y="105"/>
    </contour>
  </outline>
</glyph>
<glyph name="radical" format="2">
  <advance width="560"/>
  <unicode hex="221A"/>
  <outline>
    <contour>
      <point x="157" y="-130" type="line"/>
      <point x="371" y="-130" type="line"/>
      <point x="571" y="791" type="line"/>
      <point x="435" y="791" type="line"/>
      <point x="272" y="-16" type="line"/>
      <point x="259" y="-16" type="line"/>
      <point x="167" y="440" type="line"/>
      <point x="28" y="440" type="line"/>
    </contour>
    <contour>
      <point x="1" y="320" type="line"/>
      <point x="157" y="320" type="line"/>
      <point x="157" y="440" type="line"/>
      <point x="1" y="440" type="line"/>
    </contour>
  </outline>
</glyph>
<glyph name="notequal" format="2">
  <advance width="560"/>
  <unicode hex="2260"/>
  <outline>
    <contour>
      <point x="200" y="-56" type="line"/>
      <point x="457" y="529" type="line"/>
      <point x="353" y="570" type="line"/>
      <point x="96" y="-15" type="line"/>
    </contour>
    <component base="equal" xOffset="-1"/>
  </outline>
</glyph>
<glyph name="lessequal" format="2">
  <advance width="560"/>
  <unicode hex="2264"/>
  <outline>
    <contour>
      <point x="487" y="153" type="line"/>
      <point x="487" y="283" type="line"/>
      <point x="215" y="337" type="line"/>
      <point x="487" y="386" type="line"/>
      <point x="487" y="516" type="line"/>
      <point x="66" y="390" type="line"/>
      <point x="66" y="274" type="line"/>
    </contour>
    <contour>
      <point x="66" y="-11" type="line"/>
      <point x="487" y="-11" type="line"/>
      <point x="487" y="109" type="line"/>
      <point x="66" y="109" type="line"/>
    </contour>
  </outline>
</glyph>
<glyph name="greaterequal" format="2">
  <advance width="560"/>
  <unicode hex="2265"/>
  <outline>
    <contour>
      <point x="73" y="153" type="line"/>
      <point x="494" y="274" type="line"/>
      <point x="494" y="390" type="line"/>
      <point x="73" y="516" type="line"/>
      <point x="73" y="386" type="line"/>
      <point x="345" y="337" type="line"/>
      <point x="73" y="283" type="line"/>
    </contour>
    <contour>
      <point x="494" y="-11" type="line"/>
      <point x="494" y="109" type="line"/>
      <point x="73" y="109" type="line"/>
      <point x="73" y="-11" type="line"/>
    </contour>
  </outline>
</glyph>
<glyph name="lozenge" format="2">
  <advance width="560"/>
  <unicode hex="25CA"/>
  <outline>
    <contour>
      <point x="193" y="0" type="line"/>
      <point x="368" y="0" type="line"/>
      <point x="516" y="324" type="line"/>
      <point x="368" y="660" type="line"/>
      <point x="193" y="660" type="line"/>
      <point x="44" y="324" type="line"/>
    </contour>
    <contour>
      <point x="272" y="114" type="line"/>
      <point x="177" y="324" type="line"/>
      <point x="272" y="546" type="line"/>
      <point x="289" y="546" type="line"/>
      <point x="384" y="324" type="line"/>
      <point x="289" y="114" type="line"/>
    </contour>
  </outline>
</glyph>
<glyph name="gaf-ar.fina" format="2">
  <advance width="877"/>
  <unicode hex="FB93"/>
  <anchor x="458" y="-100" name="bottom"/>
  <anchor x="253" y="889" name="top"/>
  <outline>
    <contour>
      <point x="200" y="535" type="line"/>
      <point x="252" y="653"/>
      <point x="296" y="711"/>
      <point x="333" y="767" type="curve"/>
      <point x="262" y="809" type="line"/>
      <point x="197" y="711"/>
      <point x="188" y="690"/>
      <point x="149" y="609" type="curve"/>
    </contour>
    <component base="keheh-ar.fina"/>
  </outline>
</glyph>
<glyph name="gaf-ar.init" format="2">
  <advance width="651"/>
  <unicode hex="FB94"/>
  <anchor x="283" y="-100" name="bottom"/>
  <anchor x="158" y="887" name="top"/>
  <outline>
    <contour>
      <point x="15" y="535" type="line"/>
      <point x="67" y="653"/>
      <point x="111" y="711"/>
      <point x="148" y="767" type="curve"/>
      <point x="77" y="809" type="line"/>
      <point x="12" y="711"/>
      <point x="3" y="690"/>
      <point x="-36" y="609" type="curve"/>
    </contour>
    <component base="keheh-ar.init"/>
  </outline>
</glyph>
<glyph name="noonghunna-ar.fina" format="2">
  <advance width="757"/>
  <unicode hex="FB9F"/>
  <outline>
    <contour>
      <point x="638" y="0" type="line"/>
      <point x="757" y="0" type="line"/>
      <point x="757" y="120" type="line"/>
      <point x="638" y="120" type="line"/>
    </contour>
    <component base="noonghunna-ar"/>
    <component base="connection_r" xOffset="707"/>
  </outline>
</glyph>
<glyph name="hehgoal-ar.fina" format="2">
  <advance width="624"/>
  <unicode hex="FBA7"/>
  <anchor x="286" y="-100" name="bottom"/>
  <anchor x="286" y="573" name="top"/>
  <outline>
    <contour>
      <point x="40" y="0" type="line"/>
      <point x="174" y="0" type="line"/>
      <point x="174" y="250" type="line" smooth="yes"/>
      <point x="174" y="375"/>
      <point x="184" y="380"/>
      <point x="263" y="380" type="curve" smooth="yes"/>
      <point x="421" y="380" type="line"/>
      <point x="371" y="440" type="line"/>
      <point x="371" y="0" type="line"/>
      <point x="624" y="0" type="line"/>
      <point x="624" y="120" type="line"/>
      <point x="481" y="120" type="line"/>
      <point x="505" y="95" type="line"/>
      <point x="505" y="500" type="line"/>
      <point x="263" y="500" type="line" smooth="yes"/>
      <point x="88" y="500"/>
      <point x="40" y="422"/>
      <point x="40" y="250" type="curve" smooth="yes"/>
    </contour>
    <component base="connection_r" xOffset="574"/>
  </outline>
</glyph>
<glyph name="hehgoal-ar.init" format="2">
  <advance width="323"/>
  <unicode hex="FBA8"/>
  <outline>
    <contour>
      <point x="77" y="-293" type="line"/>
      <point x="207" y="-293" type="line"/>
      <point x="253" y="-59" type="line"/>
      <point x="132" y="-59" type="line"/>
    </contour>
    <component base="behDotless-ar.init"/>
  </outline>
</glyph>
<glyph name="hehDoachashmee-ar.fina" format="2">
  <advance width="871"/>
  <unicode hex="FBAB"/>
  <outline>
    <contour>
      <point x="752" y="0" type="line"/>
      <point x="871" y="0" type="line"/>
      <point x="871" y="120" type="line"/>
      <point x="752" y="120" type="line"/>
    </contour>
    <component base="hehDoachashmee-ar"/>
    <component base="connection_r" xOffset="821"/>
  </outline>
</glyph>
<glyph name="yehbarree-ar.fina" format="2">
  <advance width="741"/>
  <unicode hex="FBAF"/>
  <anchor x="372" y="-340" name="bottom"/>
  <anchor x="171" y="190" name="top"/>
  <outline>
    <contour>
      <point x="309" y="-243" type="curve" smooth="yes"/>
      <point x="626" y="-243" type="line"/>
      <point x="626" y="-123" type="line"/>
      <point x="309" y="-123" type="line" smooth="yes"/>
      <point x="234" y="-123"/>
      <point x="174" y="-117"/>
      <point x="174" y="-25" type="curve" smooth="yes"/>
      <point x="174" y="61" type="line"/>
      <point x="113" y="0" type="line"/>
      <point x="741" y="0" type="line"/>
      <point x="741" y="120" type="line"/>
      <point x="134" y="120" type="line"/>
      <point x="40" y="36" type="line"/>
      <point x="40" y="-25" type="line" smooth="yes"/>
      <point x="40" y="-168"/>
      <point x="134" y="-243"/>
    </contour>
    <component base="connection_r" xOffset="691"/>
  </outline>
</glyph>
<glyph name="dotabove-ar" format="2">
  <advance width="174"/>
  <unicode hex="FBB2"/>
  <outline>
    <contour>
      <point x="20" y="564" type="line"/>
      <point x="154" y="564" type="line"/>
      <point x="154" y="700" type="line"/>
      <point x="20" y="700" type="line"/>
    </contour>
  </outline>
</glyph>
<glyph name="threedotsdownabove-ar" format="2">
  <advance width="363"/>
  <unicode hex="FBB8"/>
  <outline>
    <contour>
      <point x="121" y="401" type="line"/>
      <point x="243" y="401" type="line"/>
      <point x="243" y="525" type="line"/>
      <point x="121" y="525" type="line"/>
    </contour>
    <component base="twodotshorizontalabove-ar" xOffset="10" yOffset="26"/>
  </outline>
</glyph>
<glyph name="sad_alefMaksura-ar" format="2">
  <advance width="1667"/>
  <unicode hex="FD05"/>
  <anchor x="1291" y="-100" name="bottom_1"/>
  <anchor x="450" y="-300" name="bottom_2"/>
  <anchor x="848.5" y="0" name="caret_1"/>
  <anchor x="1291" y="573" name="top_1"/>
  <anchor x="127" y="244" name="top_2"/>
  <outline>
    <contour>
      <point x="330" y="-248" type="curve" smooth="yes"/>
      <point x="613" y="-248" type="line" smooth="yes"/>
      <point x="767" y="-248"/>
      <point x="861" y="-153"/>
      <point x="861" y="-15" type="curve" smooth="yes"/>
      <point x="861" y="117"/>
      <point x="775" y="166"/>
      <point x="647" y="204" type="curve" smooth="yes"/>
      <point x="540" y="233"/>
      <point x="493" y="244"/>
      <point x="493" y="302" type="curve" smooth="yes"/>
      <point x="493" y="354"/>
      <point x="528" y="380"/>
      <point x="611" y="380" type="curve"/>
      <point x="614" y="500" type="line"/>
      <point x="459" y="500"/>
      <point x="359" y="431"/>
      <point x="359" y="291" type="curve" smooth="yes"/>
      <point x="359" y="169"/>
      <point x="436" y="144"/>
      <point x="609" y="89" type="curve" smooth="yes"/>
      <point x="703" y="59"/>
      <point x="727" y="48"/>
      <point x="727" y="-14" type="curve" smooth="yes"/>
      <point x="727" y="-91"/>
      <point x="690" y="-128"/>
      <point x="613" y="-128" type="curve" smooth="yes"/>
      <point x="330" y="-128" type="line" smooth="yes"/>
      <point x="235" y="-128"/>
      <point x="174" y="-80"/>
      <point x="174" y="-10" type="curve" smooth="yes"/>
      <point x="174" y="16"/>
      <point x="182" y="87"/>
      <point x="195" y="170" type="curve"/>
      <point x="63" y="189" type="line"/>
      <point x="49" y="101"/>
      <point x="40" y="24"/>
      <point x="40" y="-12" type="curve" smooth="yes"/>
      <point x="40" y="-148"/>
      <point x="165" y="-248"/>
    </contour>
    <contour>
      <point x="611" y="380" type="line"/>
      <point x="952" y="380" type="line"/>
      <point x="952" y="500" type="line"/>
      <point x="614" y="500" type="line"/>
    </contour>
    <contour>
      <point x="952" y="0" type="line"/>
      <point x="1086" y="0" type="line"/>
      <point x="1086" y="500" type="line"/>
      <point x="952" y="500" type="line"/>
    </contour>
    <contour>
      <point x="1086" y="0" type="line"/>
      <point x="1597" y="0" type="line"/>
      <point x="1597" y="241" type="line" smooth="yes"/>
      <point x="1597" y="353"/>
      <point x="1554" y="500"/>
      <point x="1364" y="500" type="curve" smooth="yes"/>
      <point x="1198" y="500"/>
      <point x="1118" y="388"/>
      <point x="1035" y="285" type="curve"/>
      <point x="1058" y="148" type="line"/>
      <point x="1093" y="194"/>
      <point x="1215" y="380"/>
      <point x="1364" y="380" type="curve" smooth="yes"/>
      <point x="1432" y="380"/>
      <point x="1463" y="342"/>
      <point x="1463" y="241" type="curve" smooth="yes"/>
      <point x="1463" y="0" type="line"/>
      <point x="1597" y="120" type="line"/>
      <point x="1086" y="120" type="line"/>
    </contour>
  </outline>
</glyph>
<glyph name="seen_reh-ar" format="2">
  <advance width="1229"/>
  <unicode hex="FD0E"/>
  <anchor x="802" y="-100" name="bottom_1"/>
  <anchor x="90" y="-350" name="bottom_2"/>
  <anchor x="614.5" y="0" name="caret_1"/>
  <anchor x="802" y="573" name="top_1"/>
  <anchor x="142" y="573" name="top_2"/>
  <outline>
    <contour>
      <point x="896" y="0" type="curve" smooth="yes"/>
      <point x="1159" y="0" type="line"/>
      <point x="1159" y="277" type="line" smooth="yes"/>
      <point x="1159" y="317"/>
      <point x="1143" y="428"/>
      <point x="1131" y="500" type="curve"/>
      <point x="999" y="480" type="line"/>
      <point x="1014" y="392"/>
      <point x="1025" y="303"/>
      <point x="1025" y="277" type="curve" smooth="yes"/>
      <point x="1025" y="91" type="line"/>
      <point x="1049" y="120" type="line"/>
      <point x="896" y="120" type="line" smooth="yes"/>
      <point x="882" y="120"/>
      <point x="870" y="125"/>
      <point x="845" y="147" type="curve"/>
      <point x="756" y="57" type="line"/>
      <point x="798" y="20"/>
      <point x="846" y="0"/>
    </contour>
    <contour>
      <point x="209" y="269" type="line"/>
      <point x="447" y="269" type="line"/>
      <point x="447" y="389" type="line"/>
      <point x="209" y="389" type="line"/>
    </contour>
    <contour>
      <point x="447" y="0" type="line"/>
      <point x="581" y="0" type="line"/>
      <point x="581" y="500" type="line"/>
      <point x="447" y="500" type="line"/>
    </contour>
    <contour>
      <point x="581" y="0" type="line"/>
      <point x="662" y="0" type="line" smooth="yes"/>
      <point x="809" y="0"/>
      <point x="869" y="76"/>
      <point x="869" y="250" type="curve" smooth="yes"/>
      <point x="869" y="450" type="line"/>
      <point x="735" y="450" type="line"/>
      <point x="735" y="250" type="line" smooth="yes"/>
      <point x="735" y="136"/>
      <point x="722" y="120"/>
      <point x="662" y="120" type="curve" smooth="yes"/>
      <point x="581" y="120" type="line"/>
    </contour>
    <component base="reh-ar"/>
  </outline>
</glyph>
<glyph name="sad_reh-ar" format="2">
  <advance width="1162"/>
  <unicode hex="FD0F"/>
  <anchor x="786" y="-100" name="bottom_1"/>
  <anchor x="90" y="-350" name="bottom_2"/>
  <anchor x="350" y="0" name="caret_1"/>
  <anchor x="786" y="573" name="top_1"/>
  <anchor x="142" y="573" name="top_2"/>
  <outline>
    <contour>
      <point x="581" y="0" type="line"/>
      <point x="1092" y="0" type="line"/>
      <point x="1092" y="241" type="line" smooth="yes"/>
      <point x="1092" y="353"/>
      <point x="1049" y="500"/>
      <point x="859" y="500" type="curve" smooth="yes"/>
      <point x="693" y="500"/>
      <point x="613" y="388"/>
      <point x="530" y="285" type="curve"/>
      <point x="553" y="148" type="line"/>
      <point x="588" y="194"/>
      <point x="710" y="380"/>
      <point x="859" y="380" type="curve" smooth="yes"/>
      <point x="927" y="380"/>
      <point x="958" y="342"/>
      <point x="958" y="241" type="curve" smooth="yes"/>
      <point x="958" y="0" type="line"/>
      <point x="1092" y="120" type="line"/>
      <point x="581" y="120" type="line"/>
    </contour>
    <contour>
      <point x="209" y="269" type="line"/>
      <point x="447" y="269" type="line"/>
      <point x="447" y="389" type="line"/>
      <point x="209" y="389" type="line"/>
    </contour>
    <contour>
      <point x="447" y="0" type="line"/>
      <point x="581" y="0" type="line"/>
      <point x="581" y="500" type="line"/>
      <point x="447" y="500" type="line"/>
    </contour>
    <component base="reh-ar"/>
  </outline>
</glyph>
<glyph name="sad_reh-ar.fina" format="2">
  <advance width="1211"/>
  <unicode hex="FD2B"/>
  <outline>
    <contour>
      <point x="1092" y="0" type="line"/>
      <point x="1211" y="0" type="line"/>
      <point x="1211" y="120" type="line"/>
      <point x="1092" y="120" type="line"/>
    </contour>
    <component base="connection_r" xOffset="1161"/>
    <component base="sad_reh-ar"/>
  </outline>
</glyph>
<glyph name="parenleft-ar" format="2">
  <advance width="308"/>
  <unicode hex="FD3E"/>
  <outline>
    <contour>
      <point x="143" y="-125" type="curve"/>
      <point x="270" y="-125" type="line"/>
      <point x="229" y="-27"/>
      <point x="175" y="156"/>
      <point x="175" y="301" type="curve" smooth="yes"/>
      <point x="175" y="446"/>
      <point x="229" y="643"/>
      <point x="270" y="750" type="curve"/>
      <point x="143" y="750" type="line"/>
      <point x="93" y="660"/>
      <point x="27" y="475"/>
      <point x="27" y="301" type="curve" smooth="yes"/>
      <point x="27" y="127"/>
      <point x="93" y="-45"/>
    </contour>
  </outline>
</glyph>
<glyph name="hah-ar.init" format="2">
  <advance width="571"/>
  <unicode hex="FEA3"/>
  <anchor x="246" y="-62" name="bottom"/>
  <anchor x="246" y="563" name="top"/>
  <outline>
    <contour>
      <point x="86" y="365" type="line"/>
      <point x="129" y="371"/>
      <point x="221" y="380"/>
      <point x="246" y="380" type="curve" smooth="yes"/>
      <point x="335" y="380"/>
      <point x="377" y="344"/>
      <point x="377" y="273" type="curve" smooth="yes"/>
      <point x="377" y="90" type="line"/>
      <point x="411" y="120" type="line"/>
      <point x="0" y="120" type="line"/>
      <point x="0" y="0" type="line"/>
      <point x="511" y="0" type="line"/>
      <point x="511" y="273" type="line" smooth="yes"/>
      <point x="511" y="415"/>
      <point x="402" y="500"/>
      <point x="246" y="500" type="curve" smooth="yes"/>
      <point x="190" y="500"/>
      <point x="131" y="489"/>
      <point x="72" y="474" type="curve"/>
    </contour>
    <component base="connection_l"/>
  </outline>
</glyph>
<glyph name="dal-ar.fina" format="2">
  <advance width="546"/>
  <unicode hex="FEAA"/>
  <outline>
    <contour>
      <point x="427" y="0" type="line"/>
      <point x="546" y="0" type="line"/>
      <point x="546" y="120" type="line"/>
      <point x="427" y="120" type="line"/>
    </contour>
    <component base="dal-ar"/>
    <component base="connection_r" xOffset="496"/>
  </outline>
</glyph>
<glyph name="seen-ar.init" format="2">
  <advance width="915"/>
  <unicode hex="FEB3"/>
  <anchor x="488" y="-100" name="bottom"/>
  <anchor x="488" y="573" name="top"/>
  <outline>
    <contour>
      <point x="582" y="0" type="curve" smooth="yes"/>
      <point x="845" y="0" type="line"/>
      <point x="845" y="277" type="line" smooth="yes"/>
      <point x="845" y="317"/>
      <point x="829" y="428"/>
      <point x="817" y="500" type="curve"/>
      <point x="685" y="480" type="line"/>
      <point x="700" y="392"/>
      <point x="711" y="303"/>
      <point x="711" y="277" type="curve" smooth="yes"/>
      <point x="711" y="91" type="line"/>
      <point x="735" y="120" type="line"/>
      <point x="582" y="120" type="line" smooth="yes"/>
      <point x="568" y="120"/>
      <point x="556" y="125"/>
      <point x="531" y="147" type="curve"/>
      <point x="442" y="57" type="line"/>
      <point x="484" y="20"/>
      <point x="532" y="0"/>
    </contour>
    <contour>
      <point x="0" y="0" type="line"/>
      <point x="267" y="0" type="line"/>
      <point x="267" y="450" type="line"/>
      <point x="133" y="450" type="line"/>
      <point x="133" y="91" type="line"/>
      <point x="160" y="120" type="line"/>
      <point x="0" y="120" type="line"/>
    </contour>
    <contour>
      <point x="267" y="0" type="line"/>
      <point x="348" y="0" type="line" smooth="yes"/>
      <point x="495" y="0"/>
      <point x="555" y="76"/>
      <point x="555" y="250" type="curve" smooth="yes"/>
      <point x="555" y="450" type="line"/>
      <point x="421" y="450" type="line"/>
      <point x="421" y="250" type="line" smooth="yes"/>
      <point x="421" y="136"/>
      <point x="408" y="120"/>
      <point x="348" y="120" type="curve" smooth="yes"/>
      <point x="267" y="120" type="line"/>
    </contour>
    <component base="connection_l"/>
  </outline>
</glyph>
<glyph name="sad-ar.init" format="2">
  <advance width="847"/>
  <unicode hex="FEBB"/>
  <anchor x="471" y="-100" name="bottom"/>
  <anchor x="471" y="573" name="top"/>
  <outline>
    <contour>
      <point x="0" y="0" type="line"/>
      <point x="777" y="0" type="line"/>
      <point x="777" y="241" type="line" smooth="yes"/>
      <point x="777" y="353"/>
      <point x="734" y="500"/>
      <point x="544" y="500" type="curve" smooth="yes"/>
      <point x="378" y="500"/>
      <point x="298" y="388"/>
      <point x="215" y="285" type="curve"/>
      <point x="238" y="148" type="line"/>
      <point x="273" y="194"/>
      <point x="395" y="380"/>
      <point x="544" y="380" type="curve" smooth="yes"/>
      <point x="612" y="380"/>
      <point x="643" y="342"/>
      <point x="643" y="241" type="curve" smooth="yes"/>
      <point x="643" y="0" type="line"/>
      <point x="777" y="120" type="line"/>
      <point x="0" y="120" type="line"/>
    </contour>
    <contour>
      <point x="132" y="120" type="line"/>
      <point x="266" y="120" type="line"/>
      <point x="266" y="500" type="line"/>
      <point x="132" y="500" type="line"/>
    </contour>
    <component base="connection_l"/>
  </outline>
</glyph>
<glyph name="tah-ar.init" format="2">
  <advance width="834"/>
  <unicode hex="FEC3"/>
  <anchor x="458" y="-100" name="bottom"/>
  <anchor x="458" y="573" name="top"/>
  <outline>
    <contour>
      <point x="0" y="0" type="line"/>
      <point x="764" y="0" type="line"/>
      <point x="764" y="241" type="line" smooth="yes"/>
      <point x="764" y="353"/>
      <point x="721" y="500"/>
      <point x="531" y="500" type="curve" smooth="yes"/>
      <point x="365" y="500"/>
      <point x="285" y="388"/>
      <point x="202" y="285" type="curve"/>
      <point x="225" y="148" type="line"/>
      <point x="260" y="194"/>
      <point x="382" y="380"/>
      <point x="531" y="380" type="curve" smooth="yes"/>
      <point x="599" y="380"/>
      <point x="630" y="342"/>
      <point x="630" y="241" type="curve" smooth="yes"/>
      <point x="630" y="0" type="line"/>
      <point x="764" y="120" type="line"/>
      <point x="0" y="120" type="line"/>
    </contour>
    <contour>
      <point x="119" y="120" type="line"/>
      <point x="253" y="120" type="line"/>
      <point x="253" y="700" type="line"/>
      <point x="119" y="700" type="line"/>
    </contour>
    <component base="connection_l"/>
  </outline>
</glyph>
<glyph name="tah-ar.medi" format="2">
  <advance width="883"/>
  <unicode hex="FEC4"/>
  <outline>
    <contour>
      <point x="764" y="0" type="line"/>
      <point x="883" y="0" type="line"/>
      <point x="883" y="120" type="line"/>
      <point x="764" y="120" type="line"/>
    </contour>
    <component base="tah-ar.init"/>
    <component base="connection_r" xOffset="833"/>
  </outline>
</glyph>
<glyph name="ain-ar.medi" format="2">
  <advance width="666"/>
  <unicode hex="FECC"/>
  <anchor x="333" y="-100" name="bottom"/>
  <anchor x="333" y="573" name="top"/>
  <outline>
    <contour>
      <point x="0" y="0" type="line"/>
      <point x="164" y="0" type="line" smooth="yes"/>
      <point x="425" y="0"/>
      <point x="609" y="235"/>
      <point x="609" y="372" type="curve" smooth="yes"/>
      <point x="609" y="431" type="line"/>
      <point x="523" y="476"/>
      <point x="417" y="500"/>
      <point x="336" y="500" type="curve" smooth="yes"/>
      <point x="255" y="500"/>
      <point x="149" y="476"/>
      <point x="63" y="431" type="curve"/>
      <point x="63" y="372" type="line" smooth="yes"/>
      <point x="63" y="235"/>
      <point x="247" y="0"/>
      <point x="508" y="0" type="curve" smooth="yes"/>
      <point x="666" y="0" type="line"/>
      <point x="666" y="120" type="line"/>
      <point x="508" y="120" type="line" smooth="yes"/>
      <point x="366" y="120"/>
      <point x="197" y="261"/>
      <point x="197" y="372" type="curve" smooth="yes"/>
      <point x="197" y="431" type="line"/>
      <point x="125" y="325" type="line"/>
      <point x="192" y="360"/>
      <point x="270" y="380"/>
      <point x="336" y="380" type="curve" smooth="yes"/>
      <point x="402" y="380"/>
      <point x="480" y="360"/>
      <point x="547" y="325" type="curve"/>
      <point x="475" y="431" type="line"/>
      <point x="475" y="372" type="line" smooth="yes"/>
      <point x="475" y="261"/>
      <point x="306" y="120"/>
      <point x="164" y="120" type="curve" smooth="yes"/>
      <point x="0" y="120" type="line"/>
    </contour>
    <component base="connection_l"/>
    <component base="connection_r" xOffset="616"/>
  </outline>
</glyph>
<glyph name="lam-ar.fina" format="2">
  <advance width="757"/>
  <unicode hex="FEDE"/>
  <outline>
    <contour>
      <point x="638" y="0" type="line"/>
      <point x="757" y="0" type="line"/>
      <point x="757" y="120" type="line"/>
      <point x="638" y="120" type="line"/>
    </contour>
    <component base="lam-ar"/>
    <component base="connection_r" xOffset="707"/>
  </outline>
</glyph>
<glyph name="heh-ar.fina" format="2">
  <advance width="623"/>
  <unicode hex="FEEA"/>
  <anchor x="287" y="-100" name="bottom"/>
  <anchor x="287" y="573" name="top"/>
  <outline>
    <contour>
      <point x="263" y="0" type="curve" smooth="yes"/>
      <point x="623" y="0" type="line"/>
      <point x="623" y="120" type="line"/>
      <point x="263" y="120" type="line" smooth="yes"/>
      <point x="184" y="120"/>
      <point x="174" y="125"/>
      <point x="174" y="250" type="curve" smooth="yes"/>
      <point x="174" y="375"/>
      <point x="184" y="380"/>
      <point x="263" y="380" type="curve" smooth="yes"/>
      <point x="445" y="380" type="line"/>
      <point x="371" y="440" type="line"/>
      <point x="371" y="0" type="line"/>
      <point x="505" y="0" type="line"/>
      <point x="505" y="500" type="line"/>
      <point x="263" y="500" type="line" smooth="yes"/>
      <point x="88" y="500"/>
      <point x="40" y="422"/>
      <point x="40" y="250" type="curve" smooth="yes"/>
      <point x="40" y="78"/>
      <point x="88" y="0"/>
    </contour>
    <component base="connection_r" xOffset="573"/>
  </outline>
</glyph>
<glyph name="heh-ar.init" format="2">
  <advance width="817"/>
  <unicode hex="FEEB"/>
  <anchor x="403" y="-100" name="bottom"/>
  <anchor x="402" y="666" name="top"/>
  <outline>
    <contour>
      <point x="0" y="0" type="line"/>
      <point x="747" y="0" type="line"/>
      <point x="747" y="213" type="line" smooth="yes"/>
      <point x="747" y="486"/>
      <point x="575" y="569"/>
      <point x="402" y="569" type="curve" smooth="yes"/>
      <point x="307" y="569"/>
      <point x="200" y="544"/>
      <point x="127" y="526" type="curve"/>
      <point x="145" y="422" type="line"/>
      <point x="214" y="433"/>
      <point x="312" y="448"/>
      <point x="389" y="448" type="curve" smooth="yes"/>
      <point x="546" y="448"/>
      <point x="613" y="387"/>
      <point x="613" y="213" type="curve" smooth="yes"/>
      <point x="613" y="40" type="line"/>
      <point x="707" y="120" type="line"/>
      <point x="0" y="120" type="line"/>
    </contour>
    <contour>
      <point x="105" y="120" type="line"/>
      <point x="239" y="120" type="line"/>
      <point x="239" y="141" type="line" smooth="yes"/>
      <point x="239" y="190"/>
      <point x="274" y="229"/>
      <point x="313" y="229" type="curve" smooth="yes"/>
      <point x="352" y="229"/>
      <point x="385" y="191"/>
      <point x="385" y="142" type="curve" smooth="yes"/>
      <point x="385" y="120" type="line"/>
      <point x="519" y="120" type="line"/>
      <point x="519" y="142" type="line" smooth="yes"/>
      <point x="519" y="247"/>
      <point x="436" y="349"/>
      <point x="313" y="349" type="curve" smooth="yes"/>
      <point x="190" y="349"/>
      <point x="105" y="246"/>
      <point x="105" y="141" type="curve" smooth="yes"/>
    </contour>
    <component base="connection_l"/>
  </outline>
</glyph>
<glyph name="alefMaksura-ar.fina" format="2">
  <advance width="912"/>
  <unicode hex="FEF0"/>
  <anchor x="450" y="-300" name="bottom"/>
  <anchor x="127" y="244" name="top"/>
  <outline>
    <contour>
      <point x="330" y="-248" type="curve" smooth="yes"/>
      <point x="613" y="-248" type="line" smooth="yes"/>
      <point x="767" y="-248"/>
      <point x="861" y="-153"/>
      <point x="861" y="-15" type="curve" smooth="yes"/>
      <point x="861" y="25" type="line"/>
      <point x="727" y="25" type="line"/>
      <point x="727" y="-14" type="line" smooth="yes"/>
      <point x="727" y="-91"/>
      <point x="690" y="-128"/>
      <point x="613" y="-128" type="curve" smooth="yes"/>
      <point x="330" y="-128" type="line" smooth="yes"/>
      <point x="235" y="-128"/>
      <point x="174" y="-80"/>
      <point x="174" y="-10" type="curve" smooth="yes"/>
      <point x="174" y="16"/>
      <point x="182" y="87"/>
      <point x="195" y="170" type="curve"/>
      <point x="63" y="189" type="line"/>
      <point x="49" y="101"/>
      <point x="40" y="24"/>
      <point x="40" y="-12" type="curve" smooth="yes"/>
      <point x="40" y="-148"/>
      <point x="165" y="-248"/>
    </contour>
    <contour>
      <point x="708" y="0" type="curve" smooth="yes"/>
      <point x="912" y="0" type="line"/>
      <point x="912" y="120" type="line"/>
      <point x="708" y="120" type="line" smooth="yes"/>
      <point x="669" y="120"/>
      <point x="659" y="123"/>
      <point x="629" y="144" type="curve"/>
      <point x="552" y="46" type="line"/>
      <point x="606" y="8"/>
      <point x="652" y="0"/>
    </contour>
    <component base="connection_r" xOffset="862"/>
  </outline>
</glyph>
<glyph name="lam_alef-ar.fina" format="2">
  <advance width="748"/>
  <unicode hex="FEFC"/>
  <outline>
    <contour>
      <point x="629" y="0" type="line"/>
      <point x="748" y="0" type="line"/>
      <point x="748" y="120" type="line"/>
      <point x="629" y="120" type="line"/>
    </contour>
    <component base="lam_alef-ar"/>
    <component base="connection_r" xOffset="698"/>
  </outline>
</glyph>
<glyph name="Oslashacute.rvrn" format="2">
  <advance width="652"/>
  <outline>
    <contour>
      <point x="74" y="-78" type="line"/>
      <point x="172" y="-127" type="line"/>
      <point x="248" y="36" type="line"/>
      <point x="152" y="89" type="line"/>
    </contour>
    <contour>
      <point x="588" y="767" type="line"/>
      <point x="488" y="810" type="line"/>
      <point x="401" y="624" type="line"/>
      <point x="499" y="573" type="line"/>
    </contour>
    <component base="O"/>
    <component base="acute.cap" xOffset="169"/>
  </outline>
</glyph>
<glyph name="alefMaksura_noon-ar.fina.alt" format="2">
  <advance width="1129"/>
  <anchor x="943" y="-60" name="bottom_1"/>
  <anchor x="339" y="-330" name="bottom_2"/>
  <anchor x="564.5" y="0" name="caret_1"/>
  <anchor x="943" y="573" name="top_1"/>
  <anchor x="339" y="709" name="top_2"/>
  <outline>
    <contour>
      <point x="876" y="0" type="line"/>
      <point x="1129" y="0" type="line"/>
      <point x="1129" y="120" type="line"/>
      <point x="946" y="120" type="line"/>
      <point x="1010" y="70" type="line"/>
      <point x="1010" y="500" type="line"/>
      <point x="876" y="500" type="line"/>
    </contour>
    <contour>
      <point x="638" y="269" type="line"/>
      <point x="876" y="269" type="line"/>
      <point x="876" y="389" type="line"/>
      <point x="638" y="389" type="line"/>
    </contour>
    <component base="noon-ar"/>
    <component base="connection_r" xOffset="1079"/>
  </outline>
</glyph>
<glyph name="behDotless-ar.init.alt" format="2">
  <advance width="323"/>
  <anchor x="186" y="-60" name="bottom"/>
  <anchor x="186" y="573" name="top"/>
  <outline>
    <contour>
      <point x="0" y="0" type="line"/>
      <point x="253" y="0" type="line"/>
      <point x="253" y="500" type="line"/>
      <point x="119" y="500" type="line"/>
      <point x="119" y="70" type="line"/>
      <point x="183" y="120" type="line"/>
      <point x="0" y="120" type="line"/>
    </contour>
    <component base="connection_l"/>
  </outline>
</glyph>
<glyph name="braceright.cap" format="2">
  <advance width="362"/>
  <outline>
    <contour>
      <point x="38" y="787" type="curve"/>
      <point x="38" y="673" type="line"/>
      <point x="99" y="668"/>
      <point x="109" y="638"/>
      <point x="109" y="598" type="curve" smooth="yes"/>
      <point x="109" y="581"/>
      <point x="107" y="558"/>
      <point x="105" y="536" type="curve" smooth="yes"/>
      <point x="104" y="515"/>
      <point x="102" y="495"/>
      <point x="102" y="481" type="curve" smooth="yes"/>
      <point x="102" y="401"/>
      <point x="117" y="363"/>
      <point x="215" y="339" type="curve"/>
      <point x="117" y="315"/>
      <point x="103" y="285"/>
      <point x="103" y="205" type="curve" smooth="yes"/>
      <point x="103" y="191"/>
      <point x="105" y="168"/>
      <point x="106" y="145" type="curve" smooth="yes"/>
      <point x="108" y="120"/>
      <point x="110" y="94"/>
      <point x="110" y="77" type="curve" smooth="yes"/>
      <point x="110" y="37"/>
      <point x="97" y="11"/>
      <point x="36" y="6" type="curve"/>
      <point x="36" y="-108" type="line"/>
      <point x="184" y="-103"/>
      <point x="240" y="-62"/>
      <point x="240" y="67" type="curve" smooth="yes"/>
      <point x="240" y="87"/>
      <point x="238" y="114"/>
      <point x="236" y="139" type="curve" smooth="yes"/>
      <point x="235" y="161"/>
      <point x="233" y="181"/>
      <point x="233" y="194" type="curve" smooth="yes"/>
      <point x="233" y="240"/>
      <point x="268" y="270"/>
      <point x="345" y="288" type="curve"/>
      <point x="345" y="392" type="line"/>
      <point x="269" y="412"/>
      <point x="233" y="448"/>
      <point x="233" y="494" type="curve" smooth="yes"/>
      <point x="233" y="505"/>
      <point x="234" y="523"/>
      <point x="236" y="542" type="curve" smooth="yes"/>
      <point x="238" y="566"/>
      <point x="240" y="593"/>
      <point x="240" y="615" type="curve" smooth="yes"/>
      <point x="240" y="734"/>
      <point x="186" y="782"/>
    </contour>
  </outline>
</glyph>
<glyph name="cent.rvrn" format="2">
  <advance width="560"/>
  <outline>
    <contour>
      <point x="88" y="250" type="curve" smooth="yes"/>
      <point x="88" y="96"/>
      <point x="161" y="33"/>
      <point x="280" y="29" type="curve"/>
      <point x="280" y="-75" type="line" name="hr00"/>
      <point x="342" y="-75" type="line"/>
      <point x="342" y="31" type="line"/>
      <point x="379" y="33"/>
      <point x="436" y="41"/>
      <point x="459" y="47" type="curve"/>
      <point x="455" y="147" type="line"/>
      <point x="421" y="145"/>
      <point x="367" y="143"/>
      <point x="339" y="143" type="curve" smooth="yes"/>
      <point x="253" y="143"/>
      <point x="224" y="175"/>
      <point x="224" y="250" type="curve" smooth="yes"/>
      <point x="224" y="325"/>
      <point x="253" y="356"/>
      <point x="338" y="356" type="curve" smooth="yes"/>
      <point x="360" y="356"/>
      <point x="432" y="353"/>
      <point x="455" y="353" type="curve"/>
      <point x="459" y="453" type="line"/>
      <point x="443" y="457"/>
      <point x="380" y="468"/>
      <point x="342" y="470" type="curve"/>
      <point x="342" y="571" type="line"/>
      <point x="280" y="571" type="line"/>
      <point x="280" y="470" type="line"/>
      <point x="165" y="465"/>
      <point x="88" y="404"/>
    </contour>
  </outline>
</glyph>
<glyph name="dotcenter-ar.alt" format="2">
  <advance width="174"/>
  <anchor x="87" y="346" name="_center"/>
  <outline>
    <contour>
      <point x="33" y="291" type="line"/>
      <point x="141" y="291" type="line"/>
      <point x="141" y="401" type="line"/>
      <point x="33" y="401" type="line"/>
    </contour>
  </outline>
</glyph>
<glyph name="four-persian.urdu" format="2">
  <advance width="612"/>
  <outline>
    <contour>
      <point x="100" y="0" type="line"/>
      <point x="234" y="0" type="line"/>
      <point x="234" y="428" type="line" smooth="yes"/>
      <point x="234" y="481"/>
      <point x="258" y="537"/>
      <point x="299" y="537" type="curve" smooth="yes"/>
      <point x="348" y="537"/>
      <point x="382" y="448"/>
      <point x="378" y="420" type="curve"/>
      <point x="368" y="428" type="line"/>
      <point x="372" y="473"/>
      <point x="443" y="557"/>
      <point x="572" y="557" type="curve"/>
      <point x="572" y="677" type="line"/>
      <point x="489" y="677"/>
      <point x="409" y="651"/>
      <point x="347" y="609" type="curve"/>
      <point x="419" y="614" type="line"/>
      <point x="385" y="641"/>
      <point x="343" y="657"/>
      <point x="299" y="657" type="curve" smooth="yes"/>
      <point x="183" y="657"/>
      <point x="100" y="559"/>
      <point x="100" y="428" type="curve" smooth="yes"/>
    </contour>
  </outline>
</glyph>
<glyph name="four.pnum" format="2">
  <advance width="484"/>
  <outline>
    <contour>
      <point x="288" y="0" type="line"/>
      <point x="413" y="0" type="line"/>
      <point x="413" y="82" type="line"/>
      <point x="454" y="82" type="line"/>
      <point x="454" y="202" type="line"/>
      <point x="413" y="202" type="line"/>
      <point x="413" y="316" type="line"/>
      <point x="288" y="316" type="line"/>
      <point x="288" y="202" type="line"/>
      <point x="166" y="202" type="line"/>
      <point x="288" y="500" type="line"/>
      <point x="155" y="500" type="line"/>
      <point x="29" y="172" type="line"/>
      <point x="29" y="82" type="line"/>
      <point x="288" y="82" type="line"/>
    </contour>
  </outline>
</glyph>
<glyph name="grave.cap" format="2">
  <advance width="268"/>
  <outline>
    <contour>
      <point x="9" y="825" type="line"/>
      <point x="269" y="746" type="line"/>
      <point x="302" y="839" type="line"/>
      <point x="50" y="945" type="line"/>
    </contour>
  </outline>
</glyph>
<glyph name="hah-ar.fina.alt" format="2">
  <advance width="654"/>
  <outline>
    <contour>
      <point x="535" y="0" type="line"/>
      <point x="654" y="0" type="line"/>
      <point x="654" y="120" type="line"/>
      <point x="535" y="120" type="line"/>
    </contour>
    <component base="connection_r" xOffset="604"/>
    <component base="hah-ar.alt"/>
  </outline>
</glyph>
<glyph name="hungarumlaut.cap" format="2">
  <advance width="268"/>
  <outline>
    <contour>
      <point x="82" y="740" type="line"/>
      <point x="160" y="931" type="line"/>
      <point x="44" y="973" type="line"/>
      <point x="-23" y="776" type="line"/>
    </contour>
    <contour>
      <point x="290" y="739" type="line"/>
      <point x="368" y="930" type="line"/>
      <point x="252" y="972" type="line"/>
      <point x="185" y="775" type="line"/>
    </contour>
  </outline>
</glyph>
<glyph name="nine.pnum" format="2">
  <advance width="486"/>
  <outline>
    <contour>
      <point x="224" y="-9" type="curve" smooth="yes"/>
      <point x="348" y="-9"/>
      <point x="446" y="58"/>
      <point x="446" y="251" type="curve" smooth="yes"/>
      <point x="446" y="434"/>
      <point x="364" y="510"/>
      <point x="236" y="510" type="curve" smooth="yes"/>
      <point x="118" y="510"/>
      <point x="35" y="450"/>
      <point x="35" y="341" type="curve" smooth="yes"/>
      <point x="35" y="243"/>
      <point x="91" y="186"/>
      <point x="219" y="186" type="curve" smooth="yes"/>
      <point x="250" y="186"/>
      <point x="286" y="191"/>
      <point x="319" y="204" type="curve"/>
      <point x="319" y="142"/>
      <point x="284" y="103"/>
      <point x="224" y="103" type="curve" smooth="yes"/>
      <point x="166" y="103"/>
      <point x="100" y="110"/>
      <point x="67" y="116" type="curve"/>
      <point x="55" y="13" type="line" name="hr00"/>
      <point x="84" y="4"/>
      <point x="150" y="-9"/>
    </contour>
    <contour>
      <point x="230" y="294" type="curve" smooth="yes"/>
      <point x="184" y="294"/>
      <point x="160" y="315"/>
      <point x="160" y="343" type="curve" smooth="yes"/>
      <point x="160" y="384"/>
      <point x="182" y="400"/>
      <point x="231" y="400" type="curve" smooth="yes"/>
      <point x="284" y="400"/>
      <point x="312" y="367"/>
      <point x="313" y="311" type="curve"/>
      <point x="301" y="304"/>
      <point x="270" y="294"/>
    </contour>
  </outline>
</glyph>
<glyph name="one.pnum" format="2">
  <advance width="396"/>
  <outline>
    <contour>
      <point x="206" y="0" type="line"/>
      <point x="331" y="0" type="line"/>
      <point x="331" y="500" type="line"/>
      <point x="226" y="500" type="line"/>
      <point x="13" y="379" type="line"/>
      <point x="59" y="278" type="line"/>
      <point x="206" y="355" type="line"/>
    </contour>
  </outline>
</glyph>
<glyph name="paragraph.rvrn" format="2">
  <advance width="599"/>
  <outline>
    <contour>
      <point x="221" y="0" type="line"/>
      <point x="335" y="0" type="line"/>
      <point x="335" y="286" type="line"/>
      <point x="397" y="286" type="line"/>
      <point x="397" y="0" type="line"/>
      <point x="511" y="0" type="line"/>
      <point x="511" y="566" type="line"/>
      <point x="547" y="566" type="line"/>
      <point x="547" y="680" type="line"/>
      <point x="216" y="680" type="line" smooth="yes"/>
      <point x="103" y="680"/>
      <point x="28" y="597"/>
      <point x="28" y="482" type="curve" smooth="yes"/>
      <point x="28" y="367"/>
      <point x="101" y="286"/>
      <point x="214" y="286" type="curve" smooth="yes"/>
      <point x="221" y="286" type="line"/>
    </contour>
  </outline>
</glyph>
<glyph name="qafDotless-ar.fina" format="2">
  <advance width="906"/>
  <outline>
    <contour>
      <point x="787" y="0" type="line"/>
      <point x="906" y="0" type="line"/>
      <point x="906" y="120" type="line"/>
      <point x="787" y="120" type="line"/>
    </contour>
    <component base="qafDotless-ar"/>
    <component base="connection_r" xOffset="856"/>
  </outline>
</glyph>
<glyph name="questiondown.cap" format="2">
  <advance width="425"/>
  <outline>
    <contour>
      <point x="290" y="463" type="curve"/>
      <point x="183" y="463" type="line"/>
      <point x="183" y="432" type="line" smooth="yes"/>
      <point x="183" y="404"/>
      <point x="179" y="385"/>
      <point x="108" y="331" type="curve" smooth="yes"/>
      <point x="39" y="279"/>
      <point x="26" y="243"/>
      <point x="26" y="152" type="curve" smooth="yes"/>
      <point x="26" y="37"/>
      <point x="87" y="-12"/>
      <point x="231" y="-12" type="curve" smooth="yes"/>
      <point x="292" y="-12"/>
      <point x="364" y="8"/>
      <point x="401" y="23" type="curve"/>
      <point x="394" y="124" type="line"/>
      <point x="361" y="117"/>
      <point x="299" y="108"/>
      <point x="250" y="108" type="curve" smooth="yes"/>
      <point x="183" y="108"/>
      <point x="165" y="133"/>
      <point x="165" y="167" type="curve" smooth="yes"/>
      <point x="165" y="204"/>
      <point x="175" y="219"/>
      <point x="249" y="278" type="curve" smooth="yes"/>
      <point x="302" y="321"/>
      <point x="321" y="346"/>
      <point x="321" y="372" type="curve" smooth="yes"/>
      <point x="321" y="414"/>
      <point x="303" y="448"/>
    </contour>
    <contour>
      <point x="312" y="680" type="line"/>
      <point x="168" y="680" type="line"/>
      <point x="168" y="519" type="line"/>
      <point x="312" y="519" type="line"/>
    </contour>
  </outline>
</glyph>
<glyph name="ring.cap" format="2">
  <advance width="268"/>
  <outline>
    <contour>
      <point x="149" y="595" type="curve" smooth="yes"/>
      <point x="230" y="595"/>
      <point x="299" y="640"/>
      <point x="299" y="721" type="curve" smooth="yes"/>
      <point x="299" y="802"/>
      <point x="230" y="847"/>
      <point x="149" y="847" type="curve" smooth="yes"/>
      <point x="67" y="847"/>
      <point x="-1" y="802"/>
      <point x="-1" y="721" type="curve" smooth="yes"/>
      <point x="-1" y="640"/>
      <point x="67" y="595"/>
    </contour>
    <contour>
      <point x="149" y="680" type="curve" smooth="yes"/>
      <point x="113" y="680"/>
      <point x="90" y="696"/>
      <point x="90" y="721" type="curve" smooth="yes"/>
      <point x="90" y="746"/>
      <point x="113" y="762"/>
      <point x="149" y="762" type="curve" smooth="yes"/>
      <point x="185" y="762"/>
      <point x="208" y="746"/>
      <point x="208" y="721" type="curve" smooth="yes"/>
      <point x="208" y="696"/>
      <point x="185" y="680"/>
    </contour>
  </outline>
</glyph>
<glyph name="seven-persian.urdu" format="2">
  <advance width="450"/>
  <outline>
    <contour>
      <point x="20" y="0" type="line"/>
      <point x="430" y="0" type="line"/>
      <point x="430" y="120" type="line"/>
      <point x="156" y="120" type="line"/>
      <point x="186" y="89" type="line"/>
      <point x="352" y="625" type="line"/>
      <point x="224" y="660" type="line"/>
    </contour>
  </outline>
</glyph>
<glyph name="seven.pnum" format="2">
  <advance width="421"/>
  <outline>
    <contour>
      <point x="197" y="-9" type="line"/>
      <point x="394" y="367" type="line"/>
      <point x="394" y="500" type="line"/>
      <point x="27" y="500" type="line"/>
      <point x="27" y="390" type="line"/>
      <point x="275" y="390" type="line"/>
      <point x="275" y="367" type="line"/>
      <point x="90" y="20" type="line"/>
    </contour>
  </outline>
</glyph>
<glyph name="threedotsdowncenter-ar.alt" format="2">
  <advance width="363"/>
  <anchor x="182" y="266" name="_center"/>
  <outline>
    <contour>
      <point x="150" y="245" type="line"/>
      <point x="150" y="177" type="line"/>
      <point x="216" y="177" type="line"/>
      <point x="216" y="245" type="line"/>
    </contour>
    <contour>
      <point x="93" y="343" type="line"/>
      <point x="93" y="269" type="line"/>
      <point x="166" y="269" type="line"/>
      <point x="166" y="343" type="line"/>
    </contour>
    <contour>
      <point x="200" y="343" type="line"/>
      <point x="200" y="269" type="line"/>
      <point x="273" y="269" type="line"/>
      <point x="273" y="343" type="line"/>
    </contour>
  </outline>
</glyph>
<glyph name="zero.pnum" format="2">
  <advance width="536"/>
  <outline>
    <contour>
      <point x="268" y="-9" type="curve" smooth="yes"/>
      <point x="405" y="-9"/>
      <point x="495" y="43"/>
      <point x="495" y="243" type="curve" smooth="yes"/>
      <point x="495" y="443"/>
      <point x="404" y="509"/>
      <point x="268" y="509" type="curve" smooth="yes"/>
      <point x="132" y="509"/>
      <point x="41" y="443"/>
      <point x="41" y="243" type="curve" smooth="yes"/>
      <point x="41" y="43"/>
      <point x="131" y="-9"/>
    </contour>
    <contour>
      <point x="268" y="105" type="curve" smooth="yes"/>
      <point x="202" y="105"/>
      <point x="166" y="132"/>
      <point x="166" y="243" type="curve" smooth="yes"/>
      <point x="166" y="367"/>
      <point x="202" y="395"/>
      <point x="268" y="395" type="curve" smooth="yes"/>
      <point x="334" y="395"/>
      <point x="370" y="367"/>
      <point x="370" y="243" type="curve" smooth="yes"/>
      <point x="370" y="132"/>
      <point x="334" y="105"/>
    </contour>
  </outline>
</glyph>
